<mxfile host="Electron" modified="2023-12-27T14:08:58.183Z" agent="Mozilla/5.0 (Macintosh; Intel Mac OS X 10_15_7) AppleWebKit/537.36 (KHTML, like Gecko) draw.io/22.1.11 Chrome/114.0.5735.289 Electron/25.9.8 Safari/537.36" etag="u7KTMqxLcBVi_3wT0gqI" version="22.1.11" type="device">
  <diagram name="Page-1" id="rgzXXpZxuQ33LzNDmdkQ">
    <mxGraphModel dx="2968" dy="2085" grid="0" gridSize="10" guides="1" tooltips="1" connect="1" arrows="1" fold="1" page="1" pageScale="1" pageWidth="1600" pageHeight="1200" math="0" shadow="0">
      <root>
        <mxCell id="0" />
        <mxCell id="1" parent="0" />
        <mxCell id="xqsKgH8Ro8fH1hyzLg4l-7" value="" style="edgeStyle=orthogonalEdgeStyle;rounded=0;orthogonalLoop=1;jettySize=auto;html=1;exitX=0.5;exitY=0;exitDx=0;exitDy=0;entryX=0;entryY=0.5;entryDx=0;entryDy=0;" parent="1" source="FApFlZrMrufbnj_ad8FX-26" target="xqsKgH8Ro8fH1hyzLg4l-49" edge="1">
          <mxGeometry relative="1" as="geometry">
            <mxPoint x="673" y="415.5" as="targetPoint" />
          </mxGeometry>
        </mxCell>
        <mxCell id="xqsKgH8Ro8fH1hyzLg4l-13" value="" style="edgeStyle=orthogonalEdgeStyle;rounded=0;orthogonalLoop=1;jettySize=auto;html=1;exitX=0.5;exitY=0;exitDx=0;exitDy=0;" parent="1" source="FApFlZrMrufbnj_ad8FX-5" target="FApFlZrMrufbnj_ad8FX-27" edge="1">
          <mxGeometry relative="1" as="geometry">
            <mxPoint x="243.0526315789475" y="852" as="sourcePoint" />
          </mxGeometry>
        </mxCell>
        <mxCell id="FApFlZrMrufbnj_ad8FX-18" style="edgeStyle=orthogonalEdgeStyle;rounded=0;orthogonalLoop=1;jettySize=auto;html=1;entryX=0;entryY=0.5;entryDx=0;entryDy=0;" parent="1" source="FApFlZrMrufbnj_ad8FX-14" target="FApFlZrMrufbnj_ad8FX-27" edge="1">
          <mxGeometry relative="1" as="geometry">
            <mxPoint x="-122" y="597" as="targetPoint" />
          </mxGeometry>
        </mxCell>
        <mxCell id="xqsKgH8Ro8fH1hyzLg4l-67" style="edgeStyle=orthogonalEdgeStyle;rounded=0;orthogonalLoop=1;jettySize=auto;html=1;exitX=0.5;exitY=0;exitDx=0;exitDy=0;" parent="1" source="xqsKgH8Ro8fH1hyzLg4l-58" target="xqsKgH8Ro8fH1hyzLg4l-44" edge="1">
          <mxGeometry relative="1" as="geometry" />
        </mxCell>
        <mxCell id="xqsKgH8Ro8fH1hyzLg4l-44" value="&lt;span style=&quot;font-weight: normal;&quot;&gt;«interface»&lt;br style=&quot;border-color: var(--border-color); color: rgb(51, 51, 51);&quot;&gt;&lt;/span&gt;&lt;b style=&quot;border-color: var(--border-color); color: rgb(51, 51, 51);&quot;&gt;Queue&lt;/b&gt;" style="swimlane;fontStyle=1;align=center;verticalAlign=top;childLayout=stackLayout;horizontal=1;startSize=38;horizontalStack=0;resizeParent=1;resizeParentMax=0;resizeLast=0;collapsible=1;marginBottom=0;whiteSpace=wrap;html=1;fillColor=#f5f5f5;fontColor=#333333;strokeColor=#666666;" parent="1" vertex="1">
          <mxGeometry x="595" y="449" width="294" height="321" as="geometry" />
        </mxCell>
        <mxCell id="xqsKgH8Ro8fH1hyzLg4l-45" value="Insert&lt;br&gt;- &lt;font color=&quot;#cc00cc&quot;&gt;boolean add(E)&lt;/font&gt;: throws&amp;nbsp;IllegalStateException if no available space.&lt;br&gt;- &lt;font color=&quot;#cc00cc&quot;&gt;boolean offer(E)&lt;/font&gt;: returns false if no available space.&lt;br&gt;&lt;br&gt;Retrieve and Remove&lt;br&gt;- &lt;font color=&quot;#cc00cc&quot;&gt;E remove()&lt;/font&gt;: throws NoSuchElementException if empty.&lt;br&gt;- &lt;font color=&quot;#cc00cc&quot;&gt;E poll()&lt;/font&gt;: returns null if empty.&lt;br&gt;&lt;br&gt;Retrieve&lt;br&gt;- &lt;font color=&quot;#cc00cc&quot;&gt;element()&lt;/font&gt;: throws NoSuchElementException if empty.&lt;br&gt;- &lt;font color=&quot;#cc00cc&quot;&gt;peek()&lt;/font&gt;: returns null if empty." style="text;strokeColor=none;fillColor=none;align=left;verticalAlign=top;spacingLeft=4;spacingRight=4;overflow=hidden;rotatable=0;points=[[0,0.5],[1,0.5]];portConstraint=eastwest;whiteSpace=wrap;html=1;" parent="xqsKgH8Ro8fH1hyzLg4l-44" vertex="1">
          <mxGeometry y="38" width="294" height="216" as="geometry" />
        </mxCell>
        <mxCell id="xqsKgH8Ro8fH1hyzLg4l-46" value="" style="line;strokeWidth=1;fillColor=none;align=left;verticalAlign=middle;spacingTop=-1;spacingLeft=3;spacingRight=3;rotatable=0;labelPosition=right;points=[];portConstraint=eastwest;strokeColor=inherit;" parent="xqsKgH8Ro8fH1hyzLg4l-44" vertex="1">
          <mxGeometry y="254" width="294" height="8" as="geometry" />
        </mxCell>
        <mxCell id="xqsKgH8Ro8fH1hyzLg4l-47" value="- Since 1.5 (Sep 2004).&lt;br&gt;-&amp;nbsp;Supports both capacity restricted and non-restricted queues." style="text;strokeColor=none;fillColor=none;align=left;verticalAlign=top;spacingLeft=4;spacingRight=4;overflow=hidden;rotatable=0;points=[[0,0.5],[1,0.5]];portConstraint=eastwest;whiteSpace=wrap;html=1;" parent="xqsKgH8Ro8fH1hyzLg4l-44" vertex="1">
          <mxGeometry y="262" width="294" height="59" as="geometry" />
        </mxCell>
        <mxCell id="xqsKgH8Ro8fH1hyzLg4l-52" style="edgeStyle=orthogonalEdgeStyle;rounded=0;orthogonalLoop=1;jettySize=auto;html=1;exitX=0.5;exitY=0;exitDx=0;exitDy=0;" parent="1" source="xqsKgH8Ro8fH1hyzLg4l-44" target="xqsKgH8Ro8fH1hyzLg4l-48" edge="1">
          <mxGeometry relative="1" as="geometry">
            <mxPoint x="742" y="544" as="sourcePoint" />
          </mxGeometry>
        </mxCell>
        <mxCell id="uIWywwVKDFgmFYhPDzQX-17" style="edgeStyle=orthogonalEdgeStyle;rounded=0;orthogonalLoop=1;jettySize=auto;html=1;" edge="1" parent="1" source="xqsKgH8Ro8fH1hyzLg4l-48" target="uIWywwVKDFgmFYhPDzQX-13">
          <mxGeometry relative="1" as="geometry" />
        </mxCell>
        <mxCell id="xqsKgH8Ro8fH1hyzLg4l-48" value="&lt;span style=&quot;font-weight: normal;&quot;&gt;«interface»&lt;br style=&quot;border-color: var(--border-color); color: rgb(51, 51, 51);&quot;&gt;&lt;/span&gt;&lt;b style=&quot;border-color: var(--border-color); color: rgb(51, 51, 51);&quot;&gt;Collection&lt;/b&gt;" style="swimlane;fontStyle=1;align=center;verticalAlign=top;childLayout=stackLayout;horizontal=1;startSize=39;horizontalStack=0;resizeParent=1;resizeParentMax=0;resizeLast=0;collapsible=1;marginBottom=0;whiteSpace=wrap;html=1;fillColor=#f5f5f5;fontColor=#333333;strokeColor=#666666;" parent="1" vertex="1">
          <mxGeometry x="639" y="72" width="206" height="145" as="geometry" />
        </mxCell>
        <mxCell id="xqsKgH8Ro8fH1hyzLg4l-49" value="- &lt;font color=&quot;#cc00cc&quot;&gt;boolean add(E)&lt;/font&gt;&lt;br style=&quot;border-color: var(--border-color);&quot;&gt;- &lt;font color=&quot;#cc00cc&quot;&gt;void clear()&lt;/font&gt;&lt;br style=&quot;border-color: var(--border-color);&quot;&gt;- &lt;font color=&quot;#cc00cc&quot;&gt;boolean isEmpty()&lt;/font&gt;&lt;br style=&quot;border-color: var(--border-color);&quot;&gt;- &lt;font color=&quot;#cc00cc&quot;&gt;int size()&lt;/font&gt;" style="text;strokeColor=none;fillColor=none;align=left;verticalAlign=top;spacingLeft=4;spacingRight=4;overflow=hidden;rotatable=0;points=[[0,0.5],[1,0.5]];portConstraint=eastwest;whiteSpace=wrap;html=1;" parent="xqsKgH8Ro8fH1hyzLg4l-48" vertex="1">
          <mxGeometry y="39" width="206" height="68" as="geometry" />
        </mxCell>
        <mxCell id="xqsKgH8Ro8fH1hyzLg4l-50" value="" style="line;strokeWidth=1;fillColor=none;align=left;verticalAlign=middle;spacingTop=-1;spacingLeft=3;spacingRight=3;rotatable=0;labelPosition=right;points=[];portConstraint=eastwest;strokeColor=inherit;" parent="xqsKgH8Ro8fH1hyzLg4l-48" vertex="1">
          <mxGeometry y="107" width="206" height="8" as="geometry" />
        </mxCell>
        <mxCell id="xqsKgH8Ro8fH1hyzLg4l-51" value="-&amp;nbsp;Since 1.2 (Dec 1998)." style="text;strokeColor=none;fillColor=none;align=left;verticalAlign=top;spacingLeft=4;spacingRight=4;overflow=hidden;rotatable=0;points=[[0,0.5],[1,0.5]];portConstraint=eastwest;whiteSpace=wrap;html=1;" parent="xqsKgH8Ro8fH1hyzLg4l-48" vertex="1">
          <mxGeometry y="115" width="206" height="30" as="geometry" />
        </mxCell>
        <mxCell id="xqsKgH8Ro8fH1hyzLg4l-72" style="edgeStyle=orthogonalEdgeStyle;rounded=0;orthogonalLoop=1;jettySize=auto;html=1;entryX=0.5;entryY=0;entryDx=0;entryDy=0;" parent="1" source="xqsKgH8Ro8fH1hyzLg4l-58" target="xqsKgH8Ro8fH1hyzLg4l-68" edge="1">
          <mxGeometry relative="1" as="geometry" />
        </mxCell>
        <mxCell id="xqsKgH8Ro8fH1hyzLg4l-58" value="&lt;span style=&quot;font-weight: normal;&quot;&gt;«interface»&lt;br style=&quot;border-color: var(--border-color); color: rgb(51, 51, 51);&quot;&gt;&lt;/span&gt;&lt;b style=&quot;border-color: var(--border-color); color: rgb(51, 51, 51);&quot;&gt;Deque&lt;/b&gt;" style="swimlane;fontStyle=1;align=center;verticalAlign=top;childLayout=stackLayout;horizontal=1;startSize=38;horizontalStack=0;resizeParent=1;resizeParentMax=0;resizeLast=0;collapsible=1;marginBottom=0;whiteSpace=wrap;html=1;fillColor=#f5f5f5;fontColor=#333333;strokeColor=#666666;" parent="1" vertex="1">
          <mxGeometry x="516" y="1037" width="452" height="410" as="geometry" />
        </mxCell>
        <mxCell id="xqsKgH8Ro8fH1hyzLg4l-59" value="Insert&lt;br&gt;- &lt;font color=&quot;#cc00cc&quot;&gt;void addFirst(E) / addLast(E)&lt;/font&gt;: throws&amp;nbsp;IllegalStateException if no available space.&lt;br&gt;- &lt;font color=&quot;#cc00cc&quot;&gt;boolean offerFirst(E) / offerLast(E)&lt;/font&gt;: returns false if no available space.&lt;br&gt;&lt;br&gt;Retrieve and Remove&lt;br&gt;- &lt;font color=&quot;#cc00cc&quot;&gt;E removeFirst() / removeLast()&lt;/font&gt;: throws NoSuchElementException if empty.&lt;br&gt;- &lt;font color=&quot;#cc00cc&quot;&gt;E pollFirst() / pollLast()&lt;/font&gt;: returns null if empty.&lt;br&gt;&lt;br&gt;Retrieve&lt;br&gt;- &lt;font color=&quot;#cc00cc&quot;&gt;E getFirst() / getLast()&lt;/font&gt;: throws NoSuchElementException if empty.&lt;br&gt;- &lt;font color=&quot;#cc00cc&quot;&gt;E peekFirst() / peekLast()&lt;/font&gt;: returns null if empty.&lt;br&gt;&lt;br&gt;Others&lt;br&gt;- &lt;font color=&quot;#cc00cc&quot;&gt;E element()&lt;/font&gt;: getFirst().&lt;br&gt;- &lt;font color=&quot;#cc00cc&quot;&gt;void push(E)&lt;/font&gt;: addFirst(E).&lt;br&gt;- &lt;font color=&quot;#cc00cc&quot;&gt;E pop()&lt;/font&gt;: removeFirst().&lt;br&gt;- &lt;font color=&quot;#cc00cc&quot;&gt;E peek()&lt;/font&gt;: peekFirst()." style="text;strokeColor=none;fillColor=none;align=left;verticalAlign=top;spacingLeft=4;spacingRight=4;overflow=hidden;rotatable=0;points=[[0,0.5],[1,0.5]];portConstraint=eastwest;whiteSpace=wrap;html=1;" parent="xqsKgH8Ro8fH1hyzLg4l-58" vertex="1">
          <mxGeometry y="38" width="452" height="260" as="geometry" />
        </mxCell>
        <mxCell id="xqsKgH8Ro8fH1hyzLg4l-60" value="" style="line;strokeWidth=1;fillColor=none;align=left;verticalAlign=middle;spacingTop=-1;spacingLeft=3;spacingRight=3;rotatable=0;labelPosition=right;points=[];portConstraint=eastwest;strokeColor=inherit;" parent="xqsKgH8Ro8fH1hyzLg4l-58" vertex="1">
          <mxGeometry y="298" width="452" height="8" as="geometry" />
        </mxCell>
        <mxCell id="xqsKgH8Ro8fH1hyzLg4l-61" value="- Since 1.6 (Nov 2006).&lt;br&gt;-&amp;nbsp;Supports both capacity restricted and non-restricted dequeues.&lt;br&gt;-&amp;nbsp;Unlike List interface, this interface provides no support for indexed access to elements.&lt;br&gt;-&amp;nbsp;Implementations are not strictly required to prohibit null elements (though they are encouraged to do so)." style="text;strokeColor=none;fillColor=none;align=left;verticalAlign=top;spacingLeft=4;spacingRight=4;overflow=hidden;rotatable=0;points=[[0,0.5],[1,0.5]];portConstraint=eastwest;whiteSpace=wrap;html=1;" parent="xqsKgH8Ro8fH1hyzLg4l-58" vertex="1">
          <mxGeometry y="306" width="452" height="104" as="geometry" />
        </mxCell>
        <mxCell id="xqsKgH8Ro8fH1hyzLg4l-68" value="&lt;span style=&quot;border-color: var(--border-color); color: rgb(51, 51, 51);&quot;&gt;Array&lt;/span&gt;&lt;b style=&quot;border-color: var(--border-color); color: rgb(51, 51, 51);&quot;&gt;Deque&lt;/b&gt;" style="swimlane;fontStyle=1;align=center;verticalAlign=top;childLayout=stackLayout;horizontal=1;startSize=27;horizontalStack=0;resizeParent=1;resizeParentMax=0;resizeLast=0;collapsible=1;marginBottom=0;whiteSpace=wrap;html=1;fillColor=#dae8fc;strokeColor=#6c8ebf;" parent="1" vertex="1">
          <mxGeometry x="582" y="1885" width="321" height="211" as="geometry" />
        </mxCell>
        <mxCell id="xqsKgH8Ro8fH1hyzLg4l-69" value="Insert&lt;br&gt;- &lt;font color=&quot;#cc00cc&quot;&gt;void addFirst(E) / addLast(E)&lt;/font&gt;.&lt;br&gt;- &lt;font color=&quot;#cc00cc&quot;&gt;boolean offerFirst(E) / offerLast(E)&lt;/font&gt;." style="text;strokeColor=none;fillColor=none;align=left;verticalAlign=top;spacingLeft=4;spacingRight=4;overflow=hidden;rotatable=0;points=[[0,0.5],[1,0.5]];portConstraint=eastwest;whiteSpace=wrap;html=1;" parent="xqsKgH8Ro8fH1hyzLg4l-68" vertex="1">
          <mxGeometry y="27" width="321" height="60" as="geometry" />
        </mxCell>
        <mxCell id="xqsKgH8Ro8fH1hyzLg4l-70" value="" style="line;strokeWidth=1;fillColor=none;align=left;verticalAlign=middle;spacingTop=-1;spacingLeft=3;spacingRight=3;rotatable=0;labelPosition=right;points=[];portConstraint=eastwest;strokeColor=inherit;" parent="xqsKgH8Ro8fH1hyzLg4l-68" vertex="1">
          <mxGeometry y="87" width="321" height="8" as="geometry" />
        </mxCell>
        <mxCell id="xqsKgH8Ro8fH1hyzLg4l-71" value="- Since 1.6 (Nov 2006).&lt;br&gt;-&amp;nbsp;&lt;b&gt;&lt;font color=&quot;#ff0000&quot;&gt;null is prohibited&lt;/font&gt;&lt;/b&gt;.&lt;br&gt;-&amp;nbsp;Resizable-array implementation of a deque (no capacity restrictions, grow as needed).&lt;br&gt;-&amp;nbsp;Should be used when need functionalities of a stack/queue/deque for better performance.&lt;br&gt;- Not thread-safe." style="text;strokeColor=none;fillColor=none;align=left;verticalAlign=top;spacingLeft=4;spacingRight=4;overflow=hidden;rotatable=0;points=[[0,0.5],[1,0.5]];portConstraint=eastwest;whiteSpace=wrap;html=1;" parent="xqsKgH8Ro8fH1hyzLg4l-68" vertex="1">
          <mxGeometry y="95" width="321" height="116" as="geometry" />
        </mxCell>
        <mxCell id="FApFlZrMrufbnj_ad8FX-5" value="&lt;b style=&quot;border-color: var(--border-color); color: rgb(51, 51, 51);&quot;&gt;LinkedList&lt;/b&gt;" style="swimlane;fontStyle=1;align=center;verticalAlign=top;childLayout=stackLayout;horizontal=1;startSize=27;horizontalStack=0;resizeParent=1;resizeParentMax=0;resizeLast=0;collapsible=1;marginBottom=0;whiteSpace=wrap;html=1;fillColor=#dae8fc;strokeColor=#6c8ebf;" parent="1" vertex="1">
          <mxGeometry x="134" y="1453" width="206" height="144" as="geometry" />
        </mxCell>
        <mxCell id="FApFlZrMrufbnj_ad8FX-6" value="//" style="text;strokeColor=none;fillColor=none;align=left;verticalAlign=top;spacingLeft=4;spacingRight=4;overflow=hidden;rotatable=0;points=[[0,0.5],[1,0.5]];portConstraint=eastwest;whiteSpace=wrap;html=1;" parent="FApFlZrMrufbnj_ad8FX-5" vertex="1">
          <mxGeometry y="27" width="206" height="26" as="geometry" />
        </mxCell>
        <mxCell id="FApFlZrMrufbnj_ad8FX-7" value="" style="line;strokeWidth=1;fillColor=none;align=left;verticalAlign=middle;spacingTop=-1;spacingLeft=3;spacingRight=3;rotatable=0;labelPosition=right;points=[];portConstraint=eastwest;strokeColor=inherit;" parent="FApFlZrMrufbnj_ad8FX-5" vertex="1">
          <mxGeometry y="53" width="206" height="8" as="geometry" />
        </mxCell>
        <mxCell id="FApFlZrMrufbnj_ad8FX-8" value="-&amp;nbsp;Since 1.2 (Dec 1998).&lt;br&gt;- &lt;b style=&quot;color: rgb(255, 0, 0);&quot;&gt;null is allowed&lt;/b&gt;&lt;font color=&quot;#ff0000&quot;&gt;.&lt;/font&gt;&lt;br&gt;- Doubly-linked list implementation of List and Deque interface.&lt;br&gt;- Not thread-safe." style="text;strokeColor=none;fillColor=none;align=left;verticalAlign=top;spacingLeft=4;spacingRight=4;overflow=hidden;rotatable=0;points=[[0,0.5],[1,0.5]];portConstraint=eastwest;whiteSpace=wrap;html=1;" parent="FApFlZrMrufbnj_ad8FX-5" vertex="1">
          <mxGeometry y="61" width="206" height="83" as="geometry" />
        </mxCell>
        <mxCell id="uIWywwVKDFgmFYhPDzQX-12" style="edgeStyle=orthogonalEdgeStyle;rounded=0;orthogonalLoop=1;jettySize=auto;html=1;" edge="1" parent="1" source="FApFlZrMrufbnj_ad8FX-10" target="uIWywwVKDFgmFYhPDzQX-1">
          <mxGeometry relative="1" as="geometry" />
        </mxCell>
        <mxCell id="FApFlZrMrufbnj_ad8FX-10" value="&lt;b style=&quot;border-color: var(--border-color); color: rgb(51, 51, 51);&quot;&gt;ArrayList&lt;/b&gt;" style="swimlane;fontStyle=1;align=center;verticalAlign=top;childLayout=stackLayout;horizontal=1;startSize=27;horizontalStack=0;resizeParent=1;resizeParentMax=0;resizeLast=0;collapsible=1;marginBottom=0;whiteSpace=wrap;html=1;fillColor=#dae8fc;strokeColor=#6c8ebf;" parent="1" vertex="1">
          <mxGeometry x="-179.5" y="1331" width="235" height="142" as="geometry" />
        </mxCell>
        <mxCell id="FApFlZrMrufbnj_ad8FX-11" value="&lt;font color=&quot;#cc00cc&quot;&gt;ArrayList(Collection&amp;lt;? extends E&amp;gt;)&lt;/font&gt;" style="text;strokeColor=none;fillColor=none;align=left;verticalAlign=top;spacingLeft=4;spacingRight=4;overflow=hidden;rotatable=0;points=[[0,0.5],[1,0.5]];portConstraint=eastwest;whiteSpace=wrap;html=1;" parent="FApFlZrMrufbnj_ad8FX-10" vertex="1">
          <mxGeometry y="27" width="235" height="26" as="geometry" />
        </mxCell>
        <mxCell id="FApFlZrMrufbnj_ad8FX-12" value="" style="line;strokeWidth=1;fillColor=none;align=left;verticalAlign=middle;spacingTop=-1;spacingLeft=3;spacingRight=3;rotatable=0;labelPosition=right;points=[];portConstraint=eastwest;strokeColor=inherit;" parent="FApFlZrMrufbnj_ad8FX-10" vertex="1">
          <mxGeometry y="53" width="235" height="8" as="geometry" />
        </mxCell>
        <mxCell id="FApFlZrMrufbnj_ad8FX-13" value="-&amp;nbsp;Since 1.2 (Dec 1998).&lt;br&gt;-&amp;nbsp;&lt;b style=&quot;border-color: var(--border-color); color: rgb(255, 0, 0);&quot;&gt;null is allowed&lt;/b&gt;&lt;font style=&quot;border-color: var(--border-color);&quot; color=&quot;#ff0000&quot;&gt;.&lt;/font&gt;&lt;br&gt;- Not thread-safe.&lt;br&gt;- Resizable-array implementation of List interface." style="text;strokeColor=none;fillColor=none;align=left;verticalAlign=top;spacingLeft=4;spacingRight=4;overflow=hidden;rotatable=0;points=[[0,0.5],[1,0.5]];portConstraint=eastwest;whiteSpace=wrap;html=1;" parent="FApFlZrMrufbnj_ad8FX-10" vertex="1">
          <mxGeometry y="61" width="235" height="81" as="geometry" />
        </mxCell>
        <mxCell id="FApFlZrMrufbnj_ad8FX-25" style="edgeStyle=orthogonalEdgeStyle;rounded=0;orthogonalLoop=1;jettySize=auto;html=1;entryX=0.5;entryY=0;entryDx=0;entryDy=0;" parent="1" source="FApFlZrMrufbnj_ad8FX-14" target="FApFlZrMrufbnj_ad8FX-21" edge="1">
          <mxGeometry relative="1" as="geometry" />
        </mxCell>
        <mxCell id="uIWywwVKDFgmFYhPDzQX-10" style="edgeStyle=orthogonalEdgeStyle;rounded=0;orthogonalLoop=1;jettySize=auto;html=1;" edge="1" parent="1" source="FApFlZrMrufbnj_ad8FX-14" target="uIWywwVKDFgmFYhPDzQX-1">
          <mxGeometry relative="1" as="geometry" />
        </mxCell>
        <mxCell id="FApFlZrMrufbnj_ad8FX-14" value="&lt;b style=&quot;border-color: var(--border-color); color: rgb(51, 51, 51);&quot;&gt;Vector&lt;/b&gt;" style="swimlane;fontStyle=1;align=center;verticalAlign=top;childLayout=stackLayout;horizontal=1;startSize=27;horizontalStack=0;resizeParent=1;resizeParentMax=0;resizeLast=0;collapsible=1;marginBottom=0;whiteSpace=wrap;html=1;fillColor=#dae8fc;strokeColor=#6c8ebf;" parent="1" vertex="1">
          <mxGeometry x="-759" y="1192" width="206" height="176" as="geometry" />
        </mxCell>
        <mxCell id="FApFlZrMrufbnj_ad8FX-15" value="//" style="text;strokeColor=none;fillColor=none;align=left;verticalAlign=top;spacingLeft=4;spacingRight=4;overflow=hidden;rotatable=0;points=[[0,0.5],[1,0.5]];portConstraint=eastwest;whiteSpace=wrap;html=1;" parent="FApFlZrMrufbnj_ad8FX-14" vertex="1">
          <mxGeometry y="27" width="206" height="25" as="geometry" />
        </mxCell>
        <mxCell id="FApFlZrMrufbnj_ad8FX-16" value="" style="line;strokeWidth=1;fillColor=none;align=left;verticalAlign=middle;spacingTop=-1;spacingLeft=3;spacingRight=3;rotatable=0;labelPosition=right;points=[];portConstraint=eastwest;strokeColor=inherit;" parent="FApFlZrMrufbnj_ad8FX-14" vertex="1">
          <mxGeometry y="52" width="206" height="8" as="geometry" />
        </mxCell>
        <mxCell id="FApFlZrMrufbnj_ad8FX-17" value="-&amp;nbsp;Since 1.0 (Jan 1996).&lt;br&gt;-&amp;nbsp;&lt;b style=&quot;border-color: var(--border-color); color: rgb(255, 0, 0);&quot;&gt;null is allowed&lt;/b&gt;&lt;font style=&quot;border-color: var(--border-color);&quot; color=&quot;#ff0000&quot;&gt;.&lt;/font&gt;&lt;br&gt;- Thread-safe.&lt;br&gt;- Resizable-array implementation of List.&lt;br&gt;- If thread-safe is not needed, use ArrayList." style="text;strokeColor=none;fillColor=none;align=left;verticalAlign=top;spacingLeft=4;spacingRight=4;overflow=hidden;rotatable=0;points=[[0,0.5],[1,0.5]];portConstraint=eastwest;whiteSpace=wrap;html=1;" parent="FApFlZrMrufbnj_ad8FX-14" vertex="1">
          <mxGeometry y="60" width="206" height="116" as="geometry" />
        </mxCell>
        <mxCell id="uIWywwVKDFgmFYhPDzQX-11" style="edgeStyle=orthogonalEdgeStyle;rounded=0;orthogonalLoop=1;jettySize=auto;html=1;" edge="1" parent="1" source="FApFlZrMrufbnj_ad8FX-21" target="uIWywwVKDFgmFYhPDzQX-1">
          <mxGeometry relative="1" as="geometry" />
        </mxCell>
        <mxCell id="FApFlZrMrufbnj_ad8FX-21" value="&lt;b style=&quot;border-color: var(--border-color); color: rgb(51, 51, 51);&quot;&gt;Stack&lt;/b&gt;" style="swimlane;fontStyle=1;align=center;verticalAlign=top;childLayout=stackLayout;horizontal=1;startSize=27;horizontalStack=0;resizeParent=1;resizeParentMax=0;resizeLast=0;collapsible=1;marginBottom=0;whiteSpace=wrap;html=1;fillColor=#dae8fc;strokeColor=#6c8ebf;" parent="1" vertex="1">
          <mxGeometry x="-759" y="1453" width="206" height="122" as="geometry" />
        </mxCell>
        <mxCell id="FApFlZrMrufbnj_ad8FX-22" value="//" style="text;strokeColor=none;fillColor=none;align=left;verticalAlign=top;spacingLeft=4;spacingRight=4;overflow=hidden;rotatable=0;points=[[0,0.5],[1,0.5]];portConstraint=eastwest;whiteSpace=wrap;html=1;" parent="FApFlZrMrufbnj_ad8FX-21" vertex="1">
          <mxGeometry y="27" width="206" height="29" as="geometry" />
        </mxCell>
        <mxCell id="FApFlZrMrufbnj_ad8FX-23" value="" style="line;strokeWidth=1;fillColor=none;align=left;verticalAlign=middle;spacingTop=-1;spacingLeft=3;spacingRight=3;rotatable=0;labelPosition=right;points=[];portConstraint=eastwest;strokeColor=inherit;" parent="FApFlZrMrufbnj_ad8FX-21" vertex="1">
          <mxGeometry y="56" width="206" height="8" as="geometry" />
        </mxCell>
        <mxCell id="FApFlZrMrufbnj_ad8FX-24" value="-&amp;nbsp;Since 1.0 (Jan 1996).&lt;br&gt;- ArrayDeque should be used in preference to this class." style="text;strokeColor=none;fillColor=none;align=left;verticalAlign=top;spacingLeft=4;spacingRight=4;overflow=hidden;rotatable=0;points=[[0,0.5],[1,0.5]];portConstraint=eastwest;whiteSpace=wrap;html=1;" parent="FApFlZrMrufbnj_ad8FX-21" vertex="1">
          <mxGeometry y="64" width="206" height="58" as="geometry" />
        </mxCell>
        <mxCell id="FApFlZrMrufbnj_ad8FX-30" style="edgeStyle=orthogonalEdgeStyle;rounded=0;orthogonalLoop=1;jettySize=auto;html=1;exitX=0.5;exitY=0;exitDx=0;exitDy=0;" parent="1" source="FApFlZrMrufbnj_ad8FX-10" target="FApFlZrMrufbnj_ad8FX-26" edge="1">
          <mxGeometry relative="1" as="geometry" />
        </mxCell>
        <mxCell id="FApFlZrMrufbnj_ad8FX-26" value="&lt;span style=&quot;font-weight: normal;&quot;&gt;«interface»&lt;br style=&quot;border-color: var(--border-color); color: rgb(51, 51, 51);&quot;&gt;&lt;/span&gt;List" style="swimlane;fontStyle=1;align=center;verticalAlign=top;childLayout=stackLayout;horizontal=1;startSize=39;horizontalStack=0;resizeParent=1;resizeParentMax=0;resizeLast=0;collapsible=1;marginBottom=0;whiteSpace=wrap;html=1;fillColor=#f5f5f5;fontColor=#333333;strokeColor=#666666;" parent="1" vertex="1">
          <mxGeometry x="-200" y="449" width="276" height="416" as="geometry" />
        </mxCell>
        <mxCell id="FApFlZrMrufbnj_ad8FX-27" value="- &lt;font color=&quot;#cc00cc&quot;&gt;boolean add(E)&lt;/font&gt;: adds to end of list.&lt;br&gt;- &lt;font color=&quot;#cc00cc&quot;&gt;E get(i)&lt;/font&gt;&lt;br style=&quot;border-color: var(--border-color);&quot;&gt;- &lt;font color=&quot;#cc00cc&quot;&gt;E set(i, E)&lt;/font&gt;: replaces element at index, returns the old element.&lt;br style=&quot;border-color: var(--border-color);&quot;&gt;- &lt;font color=&quot;#cc00cc&quot;&gt;E remove(i)&lt;/font&gt;: removes i-th element, shifts subsequent elements to the left, returns removed element.&lt;br&gt;- &lt;font color=&quot;#cc00cc&quot;&gt;void sort(Comparator&amp;lt;E&amp;gt; c)&lt;/font&gt;: if c is null, the list&#39;s elements&#39; natural ordering will be used. To avoid n^2log(n) performance on linked-list, the algorithm obtains an array containing all elements in the list, sorts the array, then iterates over the list resetting each element from the corresponding position in the array. It&#39;s a stable sort." style="text;strokeColor=none;fillColor=none;align=left;verticalAlign=top;spacingLeft=4;spacingRight=4;overflow=hidden;rotatable=0;points=[[0,0.5],[1,0.5]];portConstraint=eastwest;whiteSpace=wrap;html=1;" parent="FApFlZrMrufbnj_ad8FX-26" vertex="1">
          <mxGeometry y="39" width="276" height="223" as="geometry" />
        </mxCell>
        <mxCell id="FApFlZrMrufbnj_ad8FX-28" value="" style="line;strokeWidth=1;fillColor=none;align=left;verticalAlign=middle;spacingTop=-1;spacingLeft=3;spacingRight=3;rotatable=0;labelPosition=right;points=[];portConstraint=eastwest;strokeColor=inherit;" parent="FApFlZrMrufbnj_ad8FX-26" vertex="1">
          <mxGeometry y="262" width="276" height="8" as="geometry" />
        </mxCell>
        <mxCell id="FApFlZrMrufbnj_ad8FX-29" value="-&amp;nbsp;Since 1.2 (Dec 1998).&lt;br&gt;- Provides methods for positional (indexed) access to elements (these operations may execute in time proportional to the index value for some implementations, e.g. LinkedList).&lt;br&gt;- Some implementations may have restrictions on the elements they contain (e.g. null).&lt;br&gt;- Some implementations may throw an exception or return false on invalid operations." style="text;strokeColor=none;fillColor=none;align=left;verticalAlign=top;spacingLeft=4;spacingRight=4;overflow=hidden;rotatable=0;points=[[0,0.5],[1,0.5]];portConstraint=eastwest;whiteSpace=wrap;html=1;" parent="FApFlZrMrufbnj_ad8FX-26" vertex="1">
          <mxGeometry y="270" width="276" height="146" as="geometry" />
        </mxCell>
        <mxCell id="FApFlZrMrufbnj_ad8FX-59" style="edgeStyle=orthogonalEdgeStyle;rounded=0;orthogonalLoop=1;jettySize=auto;html=1;entryX=0.5;entryY=1;entryDx=0;entryDy=0;exitX=0.5;exitY=0;exitDx=0;exitDy=0;" parent="1" source="FApFlZrMrufbnj_ad8FX-60" target="FApFlZrMrufbnj_ad8FX-53" edge="1">
          <mxGeometry relative="1" as="geometry">
            <mxPoint x="1489.9999999999995" y="981" as="sourcePoint" />
          </mxGeometry>
        </mxCell>
        <mxCell id="FApFlZrMrufbnj_ad8FX-41" style="edgeStyle=orthogonalEdgeStyle;rounded=0;orthogonalLoop=1;jettySize=auto;html=1;exitX=0.5;exitY=0;exitDx=0;exitDy=0;" parent="1" source="FApFlZrMrufbnj_ad8FX-37" target="FApFlZrMrufbnj_ad8FX-33" edge="1">
          <mxGeometry relative="1" as="geometry" />
        </mxCell>
        <mxCell id="FApFlZrMrufbnj_ad8FX-33" value="&lt;span style=&quot;font-weight: normal;&quot;&gt;«interface»&lt;br style=&quot;border-color: var(--border-color); color: rgb(51, 51, 51);&quot;&gt;&lt;/span&gt;&lt;b style=&quot;border-color: var(--border-color); color: rgb(51, 51, 51);&quot;&gt;Map&lt;/b&gt;" style="swimlane;fontStyle=1;align=center;verticalAlign=top;childLayout=stackLayout;horizontal=1;startSize=39;horizontalStack=0;resizeParent=1;resizeParentMax=0;resizeLast=0;collapsible=1;marginBottom=0;whiteSpace=wrap;html=1;fillColor=#f5f5f5;fontColor=#333333;strokeColor=#666666;" parent="1" vertex="1">
          <mxGeometry x="2044" y="449" width="384" height="497" as="geometry" />
        </mxCell>
        <mxCell id="FApFlZrMrufbnj_ad8FX-34" value="- &lt;font color=&quot;#cc00cc&quot;&gt;boolean containsKey(k)&lt;/font&gt;: returns true if&amp;nbsp;∃ key | k == null ? key == null : k.equals(key).&lt;br&gt;- &lt;font color=&quot;#cc00cc&quot;&gt;V get(k)&lt;/font&gt;: returns null if k does not exist. Note that that is no longer necessarily true if the map impl permits null values, in that case containsKey can be used to distinguish these 2 cases.&lt;br&gt;- &lt;font color=&quot;#cc00cc&quot;&gt;V getOrDefault(k, V)&lt;/font&gt;: returns a default value if k does not exist.&lt;br&gt;- &lt;font color=&quot;#cc00cc&quot;&gt;V put(k, V)&lt;/font&gt;: creates/replaces a mapping, returns null (if there was no mapping) or previous value associated with k.&lt;br&gt;-&amp;nbsp;&lt;font color=&quot;#cc00cc&quot;&gt;V computeIfAbsent(k, k -&amp;gt; V)&lt;/font&gt;: attempt to compute the value associated with the key if it is not already associated with one (or is mapped to null). The function returns null if no mapping is recorded, otherwise returns the existing or computed value associated with the key.&lt;br&gt;- &lt;font color=&quot;#cc00cc&quot;&gt;V remove(k)&lt;/font&gt;: removes mapping for the key k, returns its value, or null if such mapping didn&#39;t exist. Note that that is no longer necessarily true if the map imp permits null values.&amp;nbsp;&lt;br&gt;- &lt;font color=&quot;#cc00cc&quot;&gt;Set&amp;lt;Map.Entry&amp;lt;K, V&amp;gt;&amp;gt; entrySet()&lt;/font&gt;: returns a Set of mappings contained in the map.&lt;br&gt;- &lt;font color=&quot;#cc00cc&quot;&gt;Set&amp;lt;K&amp;gt; keySet()&lt;/font&gt;: returns a Set of keys contained in the map.&lt;br&gt;- &lt;font color=&quot;#cc00cc&quot;&gt;Collection&amp;lt;V&amp;gt; values()&lt;/font&gt;: returns a Collection of values contained in the map.&lt;br&gt;- &lt;font color=&quot;#cc00cc&quot;&gt;void clear()&lt;/font&gt;&lt;br style=&quot;border-color: var(--border-color);&quot;&gt;- &lt;font color=&quot;#cc00cc&quot;&gt;boolean isEmpty()&lt;/font&gt;&lt;br style=&quot;border-color: var(--border-color);&quot;&gt;-&lt;font color=&quot;#cc00cc&quot;&gt; int size()&lt;/font&gt;: returns number of mappings." style="text;strokeColor=none;fillColor=none;align=left;verticalAlign=top;spacingLeft=4;spacingRight=4;overflow=hidden;rotatable=0;points=[[0,0.5],[1,0.5]];portConstraint=eastwest;whiteSpace=wrap;html=1;" parent="FApFlZrMrufbnj_ad8FX-33" vertex="1">
          <mxGeometry y="39" width="384" height="354" as="geometry" />
        </mxCell>
        <mxCell id="FApFlZrMrufbnj_ad8FX-35" value="" style="line;strokeWidth=1;fillColor=none;align=left;verticalAlign=middle;spacingTop=-1;spacingLeft=3;spacingRight=3;rotatable=0;labelPosition=right;points=[];portConstraint=eastwest;strokeColor=inherit;" parent="FApFlZrMrufbnj_ad8FX-33" vertex="1">
          <mxGeometry y="393" width="384" height="8" as="geometry" />
        </mxCell>
        <mxCell id="FApFlZrMrufbnj_ad8FX-36" value="-&amp;nbsp;Since 1.2 (Dec 1998).&lt;br&gt;- A map cannot contain duplicate keys.&lt;br&gt;- Elements order: some impls guarantee (e.g. TreeMap), some don&#39;t (e.g. HashMap).&lt;br&gt;- Some impls have restrictions on the keys and values (e.g. null keys/values)." style="text;strokeColor=none;fillColor=none;align=left;verticalAlign=top;spacingLeft=4;spacingRight=4;overflow=hidden;rotatable=0;points=[[0,0.5],[1,0.5]];portConstraint=eastwest;whiteSpace=wrap;html=1;" parent="FApFlZrMrufbnj_ad8FX-33" vertex="1">
          <mxGeometry y="401" width="384" height="96" as="geometry" />
        </mxCell>
        <mxCell id="FApFlZrMrufbnj_ad8FX-37" value="&lt;b style=&quot;border-color: var(--border-color); color: rgb(51, 51, 51);&quot;&gt;HashMap&lt;/b&gt;" style="swimlane;fontStyle=1;align=center;verticalAlign=top;childLayout=stackLayout;horizontal=1;startSize=26;horizontalStack=0;resizeParent=1;resizeParentMax=0;resizeLast=0;collapsible=1;marginBottom=0;whiteSpace=wrap;html=1;fillColor=#dae8fc;strokeColor=#6c8ebf;" parent="1" vertex="1">
          <mxGeometry x="2057.37" y="1684" width="357.25" height="233" as="geometry" />
        </mxCell>
        <mxCell id="FApFlZrMrufbnj_ad8FX-38" value="//" style="text;strokeColor=none;fillColor=none;align=left;verticalAlign=top;spacingLeft=4;spacingRight=4;overflow=hidden;rotatable=0;points=[[0,0.5],[1,0.5]];portConstraint=eastwest;whiteSpace=wrap;html=1;" parent="FApFlZrMrufbnj_ad8FX-37" vertex="1">
          <mxGeometry y="26" width="357.25" height="27" as="geometry" />
        </mxCell>
        <mxCell id="FApFlZrMrufbnj_ad8FX-39" value="" style="line;strokeWidth=1;fillColor=none;align=left;verticalAlign=middle;spacingTop=-1;spacingLeft=3;spacingRight=3;rotatable=0;labelPosition=right;points=[];portConstraint=eastwest;strokeColor=inherit;" parent="FApFlZrMrufbnj_ad8FX-37" vertex="1">
          <mxGeometry y="53" width="357.25" height="8" as="geometry" />
        </mxCell>
        <mxCell id="FApFlZrMrufbnj_ad8FX-40" value="-&amp;nbsp;Since 1.2 (Dec 1998).&lt;br&gt;- Hash table based implementation of the Map interface.&lt;br&gt;- &lt;b&gt;&lt;font color=&quot;#ff0000&quot;&gt;Null value/key is allowed&lt;/font&gt;&lt;/b&gt;.&lt;br&gt;- No order guarantee, no order guarantee over time.&lt;br&gt;- Load factor = #(defined_)mappings / #buckets (capacity of hash table) measures how full a hash table is. 0.75 offers a good tradeoff between time and space costs.&lt;br&gt;- When number of actual mappings exceeds load factor * current capacity, hash table is rehashed.&lt;br&gt;- Rehashed = internal hash table is rebuilt, so that the new one has approximately twice the capacity of old one." style="text;strokeColor=none;fillColor=none;align=left;verticalAlign=top;spacingLeft=4;spacingRight=4;overflow=hidden;rotatable=0;points=[[0,0.5],[1,0.5]];portConstraint=eastwest;whiteSpace=wrap;html=1;" parent="FApFlZrMrufbnj_ad8FX-37" vertex="1">
          <mxGeometry y="61" width="357.25" height="172" as="geometry" />
        </mxCell>
        <mxCell id="FApFlZrMrufbnj_ad8FX-52" style="edgeStyle=orthogonalEdgeStyle;rounded=0;orthogonalLoop=1;jettySize=auto;html=1;" parent="1" source="FApFlZrMrufbnj_ad8FX-46" target="xqsKgH8Ro8fH1hyzLg4l-45" edge="1">
          <mxGeometry relative="1" as="geometry" />
        </mxCell>
        <mxCell id="FApFlZrMrufbnj_ad8FX-46" value="&lt;b style=&quot;border-color: var(--border-color); color: rgb(51, 51, 51);&quot;&gt;PriorityQueue&lt;/b&gt;" style="swimlane;fontStyle=1;align=center;verticalAlign=top;childLayout=stackLayout;horizontal=1;startSize=27;horizontalStack=0;resizeParent=1;resizeParentMax=0;resizeLast=0;collapsible=1;marginBottom=0;whiteSpace=wrap;html=1;fillColor=#dae8fc;strokeColor=#6c8ebf;" parent="1" vertex="1">
          <mxGeometry x="1066" y="1327" width="248" height="272" as="geometry" />
        </mxCell>
        <mxCell id="FApFlZrMrufbnj_ad8FX-47" value="Constructors:&lt;br&gt;&lt;font color=&quot;#cc00cc&quot;&gt;PriorityQueue()&lt;br&gt;PriorityQueue(Comparator&amp;lt;? super E&amp;gt;)&lt;br&gt;PriorityQueue(Collection&amp;lt;? extends E&amp;gt;)&lt;/font&gt;" style="text;strokeColor=none;fillColor=none;align=left;verticalAlign=top;spacingLeft=4;spacingRight=4;overflow=hidden;rotatable=0;points=[[0,0.5],[1,0.5]];portConstraint=eastwest;whiteSpace=wrap;html=1;" parent="FApFlZrMrufbnj_ad8FX-46" vertex="1">
          <mxGeometry y="27" width="248" height="68" as="geometry" />
        </mxCell>
        <mxCell id="FApFlZrMrufbnj_ad8FX-48" value="" style="line;strokeWidth=1;fillColor=none;align=left;verticalAlign=middle;spacingTop=-1;spacingLeft=3;spacingRight=3;rotatable=0;labelPosition=right;points=[];portConstraint=eastwest;strokeColor=inherit;" parent="FApFlZrMrufbnj_ad8FX-46" vertex="1">
          <mxGeometry y="95" width="248" height="8" as="geometry" />
        </mxCell>
        <mxCell id="FApFlZrMrufbnj_ad8FX-49" value="-&amp;nbsp;Since 1.5 (Sep 2004).&lt;br&gt;- &lt;b style=&quot;color: rgb(255, 0, 0);&quot;&gt;null is prohibited&lt;/b&gt;&lt;font color=&quot;#ff0000&quot;&gt;.&lt;/font&gt;&lt;br&gt;- An unbounded priority queue based on a priority heap.&lt;br&gt;- The head of this queue is the least element with respect to the specified ordering. Ties are broken arbitrarily.&lt;br&gt;- This implementation is not synchronized.&lt;br&gt;- Elements added to a priority queue must implement Comparable interface.&lt;br&gt;- Not thread-safe." style="text;strokeColor=none;fillColor=none;align=left;verticalAlign=top;spacingLeft=4;spacingRight=4;overflow=hidden;rotatable=0;points=[[0,0.5],[1,0.5]];portConstraint=eastwest;whiteSpace=wrap;html=1;" parent="FApFlZrMrufbnj_ad8FX-46" vertex="1">
          <mxGeometry y="103" width="248" height="169" as="geometry" />
        </mxCell>
        <mxCell id="FApFlZrMrufbnj_ad8FX-51" style="edgeStyle=orthogonalEdgeStyle;rounded=0;orthogonalLoop=1;jettySize=auto;html=1;" parent="1" source="FApFlZrMrufbnj_ad8FX-6" target="xqsKgH8Ro8fH1hyzLg4l-59" edge="1">
          <mxGeometry relative="1" as="geometry" />
        </mxCell>
        <mxCell id="FApFlZrMrufbnj_ad8FX-57" style="edgeStyle=orthogonalEdgeStyle;rounded=0;orthogonalLoop=1;jettySize=auto;html=1;entryX=1;entryY=0.5;entryDx=0;entryDy=0;exitX=0.5;exitY=0;exitDx=0;exitDy=0;" parent="1" source="FApFlZrMrufbnj_ad8FX-53" target="xqsKgH8Ro8fH1hyzLg4l-48" edge="1">
          <mxGeometry relative="1" as="geometry" />
        </mxCell>
        <mxCell id="FApFlZrMrufbnj_ad8FX-53" value="&lt;span style=&quot;font-weight: normal;&quot;&gt;«interface»&lt;br style=&quot;border-color: var(--border-color); color: rgb(51, 51, 51);&quot;&gt;&lt;/span&gt;&lt;b style=&quot;border-color: var(--border-color); color: rgb(51, 51, 51);&quot;&gt;Set&lt;/b&gt;" style="swimlane;fontStyle=1;align=center;verticalAlign=top;childLayout=stackLayout;horizontal=1;startSize=38;horizontalStack=0;resizeParent=1;resizeParentMax=0;resizeLast=0;collapsible=1;marginBottom=0;whiteSpace=wrap;html=1;fillColor=#f5f5f5;fontColor=#333333;strokeColor=#666666;" parent="1" vertex="1">
          <mxGeometry x="1343" y="449" width="294" height="187" as="geometry" />
        </mxCell>
        <mxCell id="FApFlZrMrufbnj_ad8FX-54" value="- &lt;font color=&quot;#cc00cc&quot;&gt;boolean contains(o)&lt;/font&gt;: returns true if this set contains an element e such that o == null ? e == null : o.equals(e).&lt;br&gt;- &lt;font color=&quot;#cc00cc&quot;&gt;boolean remove(o)&lt;/font&gt;: removes the specified element if it is present" style="text;strokeColor=none;fillColor=none;align=left;verticalAlign=top;spacingLeft=4;spacingRight=4;overflow=hidden;rotatable=0;points=[[0,0.5],[1,0.5]];portConstraint=eastwest;whiteSpace=wrap;html=1;" parent="FApFlZrMrufbnj_ad8FX-53" vertex="1">
          <mxGeometry y="38" width="294" height="82" as="geometry" />
        </mxCell>
        <mxCell id="FApFlZrMrufbnj_ad8FX-55" value="" style="line;strokeWidth=1;fillColor=none;align=left;verticalAlign=middle;spacingTop=-1;spacingLeft=3;spacingRight=3;rotatable=0;labelPosition=right;points=[];portConstraint=eastwest;strokeColor=inherit;" parent="FApFlZrMrufbnj_ad8FX-53" vertex="1">
          <mxGeometry y="120" width="294" height="8" as="geometry" />
        </mxCell>
        <mxCell id="FApFlZrMrufbnj_ad8FX-56" value="- Since 1.2 (Dec 1996).&lt;br&gt;- Some implementations may have restrictions on the elements they contain (e.g. null)." style="text;strokeColor=none;fillColor=none;align=left;verticalAlign=top;spacingLeft=4;spacingRight=4;overflow=hidden;rotatable=0;points=[[0,0.5],[1,0.5]];portConstraint=eastwest;whiteSpace=wrap;html=1;" parent="FApFlZrMrufbnj_ad8FX-53" vertex="1">
          <mxGeometry y="128" width="294" height="59" as="geometry" />
        </mxCell>
        <mxCell id="FApFlZrMrufbnj_ad8FX-60" value="&lt;b style=&quot;border-color: var(--border-color);&quot;&gt;HashSet&lt;/b&gt;" style="swimlane;fontStyle=1;align=center;verticalAlign=top;childLayout=stackLayout;horizontal=1;startSize=27;horizontalStack=0;resizeParent=1;resizeParentMax=0;resizeLast=0;collapsible=1;marginBottom=0;whiteSpace=wrap;html=1;fillColor=#dae8fc;strokeColor=#6c8ebf;" parent="1" vertex="1">
          <mxGeometry x="1387" y="1377" width="206" height="158" as="geometry" />
        </mxCell>
        <mxCell id="FApFlZrMrufbnj_ad8FX-61" value="//" style="text;strokeColor=none;fillColor=none;align=left;verticalAlign=top;spacingLeft=4;spacingRight=4;overflow=hidden;rotatable=0;points=[[0,0.5],[1,0.5]];portConstraint=eastwest;whiteSpace=wrap;html=1;" parent="FApFlZrMrufbnj_ad8FX-60" vertex="1">
          <mxGeometry y="27" width="206" height="26" as="geometry" />
        </mxCell>
        <mxCell id="FApFlZrMrufbnj_ad8FX-62" value="" style="line;strokeWidth=1;fillColor=none;align=left;verticalAlign=middle;spacingTop=-1;spacingLeft=3;spacingRight=3;rotatable=0;labelPosition=right;points=[];portConstraint=eastwest;strokeColor=inherit;" parent="FApFlZrMrufbnj_ad8FX-60" vertex="1">
          <mxGeometry y="53" width="206" height="8" as="geometry" />
        </mxCell>
        <mxCell id="FApFlZrMrufbnj_ad8FX-63" value="-&amp;nbsp;Since 1.2 (Dec 1998).&lt;br&gt;-&amp;nbsp;&lt;b style=&quot;border-color: var(--border-color); color: rgb(255, 0, 0);&quot;&gt;null is allowed&lt;/b&gt;&lt;font style=&quot;border-color: var(--border-color);&quot; color=&quot;#ff0000&quot;&gt;.&lt;/font&gt;&lt;br&gt;- A Set interface implementation, backed by a Hash table (actually a HashMap instance).&lt;br&gt;- Not thread-safe." style="text;strokeColor=none;fillColor=none;align=left;verticalAlign=top;spacingLeft=4;spacingRight=4;overflow=hidden;rotatable=0;points=[[0,0.5],[1,0.5]];portConstraint=eastwest;whiteSpace=wrap;html=1;" parent="FApFlZrMrufbnj_ad8FX-60" vertex="1">
          <mxGeometry y="61" width="206" height="97" as="geometry" />
        </mxCell>
        <mxCell id="9joVkJ0QpTBINSRpKAiq-19" style="edgeStyle=orthogonalEdgeStyle;rounded=0;orthogonalLoop=1;jettySize=auto;html=1;entryX=1;entryY=0.5;entryDx=0;entryDy=0;" parent="1" source="9joVkJ0QpTBINSRpKAiq-1" target="FApFlZrMrufbnj_ad8FX-54" edge="1">
          <mxGeometry relative="1" as="geometry" />
        </mxCell>
        <mxCell id="9joVkJ0QpTBINSRpKAiq-1" value="&lt;span style=&quot;font-weight: normal;&quot;&gt;«interface»&lt;br style=&quot;border-color: var(--border-color); color: rgb(51, 51, 51);&quot;&gt;&lt;/span&gt;&lt;b style=&quot;border-color: var(--border-color); color: rgb(51, 51, 51);&quot;&gt;SortedSet&lt;/b&gt;" style="swimlane;fontStyle=1;align=center;verticalAlign=top;childLayout=stackLayout;horizontal=1;startSize=38;horizontalStack=0;resizeParent=1;resizeParentMax=0;resizeLast=0;collapsible=1;marginBottom=0;whiteSpace=wrap;html=1;fillColor=#f5f5f5;fontColor=#333333;strokeColor=#666666;" parent="1" vertex="1">
          <mxGeometry x="1619.5" y="1037" width="375" height="301" as="geometry" />
        </mxCell>
        <mxCell id="9joVkJ0QpTBINSRpKAiq-2" value="- &lt;font color=&quot;#cc00cc&quot;&gt;E first()&lt;/font&gt;: Returns the first (lowest) element.&lt;br&gt;-&amp;nbsp;&lt;font style=&quot;border-color: var(--border-color);&quot; color=&quot;#cc00cc&quot;&gt;E last()&lt;/font&gt;: Returns the last (highest) element." style="text;strokeColor=none;fillColor=none;align=left;verticalAlign=top;spacingLeft=4;spacingRight=4;overflow=hidden;rotatable=0;points=[[0,0.5],[1,0.5]];portConstraint=eastwest;whiteSpace=wrap;html=1;" parent="9joVkJ0QpTBINSRpKAiq-1" vertex="1">
          <mxGeometry y="38" width="375" height="41" as="geometry" />
        </mxCell>
        <mxCell id="9joVkJ0QpTBINSRpKAiq-3" value="" style="line;strokeWidth=1;fillColor=none;align=left;verticalAlign=middle;spacingTop=-1;spacingLeft=3;spacingRight=3;rotatable=0;labelPosition=right;points=[];portConstraint=eastwest;strokeColor=inherit;" parent="9joVkJ0QpTBINSRpKAiq-1" vertex="1">
          <mxGeometry y="79" width="375" height="8" as="geometry" />
        </mxCell>
        <mxCell id="9joVkJ0QpTBINSRpKAiq-4" value="- Since 1.2 (Dec 1996).&lt;br&gt;- A Set that provides total ordering on its elements. The elements are ordered using their natural ordering, or by a Comparator typically provided at creation time.&lt;br&gt;- The set&#39;s iterator will traverse the set in ascending element order.&lt;br&gt;- Elements added to a sorted set must implement Comparable interface, or be accepted by the specified comparator. Furthermore, all such elements must be mutually comparable, i.e. e1.compareTo(e2) is possible for any e1, e2 in the sorted set.&lt;br&gt;- Set interface is defined in terms of &lt;i&gt;equals &lt;/i&gt;operation (on its elements), while SortedSet interface is defined using &lt;i&gt;compareTo &lt;/i&gt;(or Comparator&#39;s&amp;nbsp;&lt;i&gt;compare&lt;/i&gt;) method. Because SortedSet extends Set, the ordering maintained by &lt;i&gt;compareTo&lt;/i&gt;&amp;nbsp;must be consistent with &lt;i&gt;equals &lt;/i&gt;if the sorted set is to correctly implement the Set interface." style="text;strokeColor=none;fillColor=none;align=left;verticalAlign=top;spacingLeft=4;spacingRight=4;overflow=hidden;rotatable=0;points=[[0,0.5],[1,0.5]];portConstraint=eastwest;whiteSpace=wrap;html=1;" parent="9joVkJ0QpTBINSRpKAiq-1" vertex="1">
          <mxGeometry y="87" width="375" height="214" as="geometry" />
        </mxCell>
        <mxCell id="9joVkJ0QpTBINSRpKAiq-18" style="edgeStyle=orthogonalEdgeStyle;rounded=0;orthogonalLoop=1;jettySize=auto;html=1;entryX=0.5;entryY=1;entryDx=0;entryDy=0;" parent="1" source="9joVkJ0QpTBINSRpKAiq-9" target="9joVkJ0QpTBINSRpKAiq-1" edge="1">
          <mxGeometry relative="1" as="geometry" />
        </mxCell>
        <mxCell id="9joVkJ0QpTBINSRpKAiq-9" value="&lt;span style=&quot;font-weight: normal;&quot;&gt;«interface»&lt;br style=&quot;border-color: var(--border-color); color: rgb(51, 51, 51);&quot;&gt;&lt;/span&gt;&lt;b style=&quot;border-color: var(--border-color); color: rgb(51, 51, 51);&quot;&gt;NavigableSet&lt;/b&gt;" style="swimlane;fontStyle=1;align=center;verticalAlign=top;childLayout=stackLayout;horizontal=1;startSize=38;horizontalStack=0;resizeParent=1;resizeParentMax=0;resizeLast=0;collapsible=1;marginBottom=0;whiteSpace=wrap;html=1;fillColor=#f5f5f5;fontColor=#333333;strokeColor=#666666;" parent="1" vertex="1">
          <mxGeometry x="1660" y="1466" width="294" height="200" as="geometry" />
        </mxCell>
        <mxCell id="9joVkJ0QpTBINSRpKAiq-10" value="- &lt;font color=&quot;#cc00cc&quot;&gt;E pollFirst()&lt;/font&gt;: Returns and removes the first (lowest) element, or null if empty.&lt;br&gt;- &lt;font color=&quot;#cc00cc&quot;&gt;E pollLast()&lt;/font&gt;: Returns and removes the last (highest) element, or null if empty." style="text;strokeColor=none;fillColor=none;align=left;verticalAlign=top;spacingLeft=4;spacingRight=4;overflow=hidden;rotatable=0;points=[[0,0.5],[1,0.5]];portConstraint=eastwest;whiteSpace=wrap;html=1;" parent="9joVkJ0QpTBINSRpKAiq-9" vertex="1">
          <mxGeometry y="38" width="294" height="67" as="geometry" />
        </mxCell>
        <mxCell id="9joVkJ0QpTBINSRpKAiq-11" value="" style="line;strokeWidth=1;fillColor=none;align=left;verticalAlign=middle;spacingTop=-1;spacingLeft=3;spacingRight=3;rotatable=0;labelPosition=right;points=[];portConstraint=eastwest;strokeColor=inherit;" parent="9joVkJ0QpTBINSRpKAiq-9" vertex="1">
          <mxGeometry y="105" width="294" height="8" as="geometry" />
        </mxCell>
        <mxCell id="9joVkJ0QpTBINSRpKAiq-12" value="- Since 1.6 (Dec 2006).&lt;br&gt;- A SortedSet extended with navigation methods finding closest matches for given search targets.&lt;br&gt;- A NavigableSet may be accessed and traversed in either ascending or descending order." style="text;strokeColor=none;fillColor=none;align=left;verticalAlign=top;spacingLeft=4;spacingRight=4;overflow=hidden;rotatable=0;points=[[0,0.5],[1,0.5]];portConstraint=eastwest;whiteSpace=wrap;html=1;" parent="9joVkJ0QpTBINSRpKAiq-9" vertex="1">
          <mxGeometry y="113" width="294" height="87" as="geometry" />
        </mxCell>
        <mxCell id="9joVkJ0QpTBINSRpKAiq-21" style="edgeStyle=orthogonalEdgeStyle;rounded=0;orthogonalLoop=1;jettySize=auto;html=1;entryX=0.5;entryY=1;entryDx=0;entryDy=0;" parent="1" source="9joVkJ0QpTBINSRpKAiq-13" target="9joVkJ0QpTBINSRpKAiq-9" edge="1">
          <mxGeometry relative="1" as="geometry" />
        </mxCell>
        <mxCell id="9joVkJ0QpTBINSRpKAiq-13" value="&lt;b style=&quot;border-color: var(--border-color);&quot;&gt;TreeSet&lt;/b&gt;" style="swimlane;fontStyle=1;align=center;verticalAlign=top;childLayout=stackLayout;horizontal=1;startSize=27;horizontalStack=0;resizeParent=1;resizeParentMax=0;resizeLast=0;collapsible=1;marginBottom=0;whiteSpace=wrap;html=1;fillColor=#dae8fc;strokeColor=#6c8ebf;" parent="1" vertex="1">
          <mxGeometry x="1704" y="1803" width="206" height="143" as="geometry" />
        </mxCell>
        <mxCell id="9joVkJ0QpTBINSRpKAiq-14" value="//" style="text;strokeColor=none;fillColor=none;align=left;verticalAlign=top;spacingLeft=4;spacingRight=4;overflow=hidden;rotatable=0;points=[[0,0.5],[1,0.5]];portConstraint=eastwest;whiteSpace=wrap;html=1;" parent="9joVkJ0QpTBINSRpKAiq-13" vertex="1">
          <mxGeometry y="27" width="206" height="26" as="geometry" />
        </mxCell>
        <mxCell id="9joVkJ0QpTBINSRpKAiq-15" value="" style="line;strokeWidth=1;fillColor=none;align=left;verticalAlign=middle;spacingTop=-1;spacingLeft=3;spacingRight=3;rotatable=0;labelPosition=right;points=[];portConstraint=eastwest;strokeColor=inherit;" parent="9joVkJ0QpTBINSRpKAiq-13" vertex="1">
          <mxGeometry y="53" width="206" height="8" as="geometry" />
        </mxCell>
        <mxCell id="9joVkJ0QpTBINSRpKAiq-16" value="-&amp;nbsp;Since 1.2 (Dec 1998).&lt;br&gt;- A Navigable interface implementation, backed by a TreeMap.&lt;br&gt;- Not thread-safe." style="text;strokeColor=none;fillColor=none;align=left;verticalAlign=top;spacingLeft=4;spacingRight=4;overflow=hidden;rotatable=0;points=[[0,0.5],[1,0.5]];portConstraint=eastwest;whiteSpace=wrap;html=1;" parent="9joVkJ0QpTBINSRpKAiq-13" vertex="1">
          <mxGeometry y="61" width="206" height="82" as="geometry" />
        </mxCell>
        <mxCell id="9joVkJ0QpTBINSRpKAiq-69" style="edgeStyle=orthogonalEdgeStyle;rounded=0;orthogonalLoop=1;jettySize=auto;html=1;" parent="1" source="9joVkJ0QpTBINSRpKAiq-55" target="FApFlZrMrufbnj_ad8FX-34" edge="1">
          <mxGeometry relative="1" as="geometry" />
        </mxCell>
        <mxCell id="9joVkJ0QpTBINSRpKAiq-55" value="&lt;span style=&quot;font-weight: normal;&quot;&gt;«interface»&lt;br style=&quot;border-color: var(--border-color); color: rgb(51, 51, 51);&quot;&gt;&lt;/span&gt;&lt;b style=&quot;border-color: var(--border-color); color: rgb(51, 51, 51);&quot;&gt;SortedMap&lt;/b&gt;" style="swimlane;fontStyle=1;align=center;verticalAlign=top;childLayout=stackLayout;horizontal=1;startSize=38;horizontalStack=0;resizeParent=1;resizeParentMax=0;resizeLast=0;collapsible=1;marginBottom=0;whiteSpace=wrap;html=1;fillColor=#f5f5f5;fontColor=#333333;strokeColor=#666666;" parent="1" vertex="1">
          <mxGeometry x="2541" y="1037" width="375" height="320" as="geometry" />
        </mxCell>
        <mxCell id="9joVkJ0QpTBINSRpKAiq-56" value="- &lt;font color=&quot;#cc00cc&quot;&gt;E firstKey()&lt;/font&gt;: Returns the first (lowest) key.&lt;br&gt;-&amp;nbsp;&lt;font style=&quot;border-color: var(--border-color);&quot; color=&quot;#cc00cc&quot;&gt;E lastKey()&lt;/font&gt;: Returns the last (highest) key." style="text;strokeColor=none;fillColor=none;align=left;verticalAlign=top;spacingLeft=4;spacingRight=4;overflow=hidden;rotatable=0;points=[[0,0.5],[1,0.5]];portConstraint=eastwest;whiteSpace=wrap;html=1;" parent="9joVkJ0QpTBINSRpKAiq-55" vertex="1">
          <mxGeometry y="38" width="375" height="41" as="geometry" />
        </mxCell>
        <mxCell id="9joVkJ0QpTBINSRpKAiq-57" value="" style="line;strokeWidth=1;fillColor=none;align=left;verticalAlign=middle;spacingTop=-1;spacingLeft=3;spacingRight=3;rotatable=0;labelPosition=right;points=[];portConstraint=eastwest;strokeColor=inherit;" parent="9joVkJ0QpTBINSRpKAiq-55" vertex="1">
          <mxGeometry y="79" width="375" height="8" as="geometry" />
        </mxCell>
        <mxCell id="9joVkJ0QpTBINSRpKAiq-58" value="- Since 1.2 (Dec 1996).&lt;br&gt;- A Map that provides total ordering on its keys. The keys are ordered using their natural ordering, or by a Comparator typically provided at creation time.&lt;br&gt;- This order is reflected when iterating over the sorted map&#39;s collection views&lt;br&gt;- Keys added to a sorted map must implement Comparable interface, or be accepted by the specified comparator. Furthermore, all such keys must be mutually comparable, i.e. k1.compareTo(k2) is possible for any k1, k2 in the sorted map.&lt;br&gt;- Map interface is defined in terms of &lt;i&gt;equals &lt;/i&gt;operation (on its elements), while SortedMap interface is defined using &lt;i&gt;compareTo &lt;/i&gt;(or &lt;i&gt;compare&lt;/i&gt;) method. Because SortedMap extends Map, the ordering maintained by &lt;i&gt;compareTo&lt;/i&gt;&amp;nbsp;must be consistent with &lt;i&gt;equals &lt;/i&gt;if the sorted map is to correctly implement the Map interface." style="text;strokeColor=none;fillColor=none;align=left;verticalAlign=top;spacingLeft=4;spacingRight=4;overflow=hidden;rotatable=0;points=[[0,0.5],[1,0.5]];portConstraint=eastwest;whiteSpace=wrap;html=1;" parent="9joVkJ0QpTBINSRpKAiq-55" vertex="1">
          <mxGeometry y="87" width="375" height="233" as="geometry" />
        </mxCell>
        <mxCell id="9joVkJ0QpTBINSRpKAiq-59" style="edgeStyle=orthogonalEdgeStyle;rounded=0;orthogonalLoop=1;jettySize=auto;html=1;entryX=0.5;entryY=1;entryDx=0;entryDy=0;" parent="1" source="9joVkJ0QpTBINSRpKAiq-60" target="9joVkJ0QpTBINSRpKAiq-55" edge="1">
          <mxGeometry relative="1" as="geometry" />
        </mxCell>
        <mxCell id="9joVkJ0QpTBINSRpKAiq-60" value="&lt;span style=&quot;font-weight: normal;&quot;&gt;«interface»&lt;br style=&quot;border-color: var(--border-color); color: rgb(51, 51, 51);&quot;&gt;&lt;/span&gt;&lt;b style=&quot;border-color: var(--border-color); color: rgb(51, 51, 51);&quot;&gt;NavigableMap&lt;/b&gt;" style="swimlane;fontStyle=1;align=center;verticalAlign=top;childLayout=stackLayout;horizontal=1;startSize=38;horizontalStack=0;resizeParent=1;resizeParentMax=0;resizeLast=0;collapsible=1;marginBottom=0;whiteSpace=wrap;html=1;fillColor=#f5f5f5;fontColor=#333333;strokeColor=#666666;" parent="1" vertex="1">
          <mxGeometry x="2581.5" y="1466" width="294" height="162" as="geometry" />
        </mxCell>
        <mxCell id="9joVkJ0QpTBINSRpKAiq-61" value="//&amp;nbsp;" style="text;strokeColor=none;fillColor=none;align=left;verticalAlign=top;spacingLeft=4;spacingRight=4;overflow=hidden;rotatable=0;points=[[0,0.5],[1,0.5]];portConstraint=eastwest;whiteSpace=wrap;html=1;" parent="9joVkJ0QpTBINSRpKAiq-60" vertex="1">
          <mxGeometry y="38" width="294" height="31" as="geometry" />
        </mxCell>
        <mxCell id="9joVkJ0QpTBINSRpKAiq-62" value="" style="line;strokeWidth=1;fillColor=none;align=left;verticalAlign=middle;spacingTop=-1;spacingLeft=3;spacingRight=3;rotatable=0;labelPosition=right;points=[];portConstraint=eastwest;strokeColor=inherit;" parent="9joVkJ0QpTBINSRpKAiq-60" vertex="1">
          <mxGeometry y="69" width="294" height="8" as="geometry" />
        </mxCell>
        <mxCell id="9joVkJ0QpTBINSRpKAiq-63" value="- Since 1.6 (Dec 2006).&lt;br&gt;- A SortedMap extended with navigation methods finding closest matches for given search targets.&lt;br style=&quot;border-color: var(--border-color);&quot;&gt;- A NavigableMap may be accessed and traversed in either ascending or descending key order." style="text;strokeColor=none;fillColor=none;align=left;verticalAlign=top;spacingLeft=4;spacingRight=4;overflow=hidden;rotatable=0;points=[[0,0.5],[1,0.5]];portConstraint=eastwest;whiteSpace=wrap;html=1;" parent="9joVkJ0QpTBINSRpKAiq-60" vertex="1">
          <mxGeometry y="77" width="294" height="85" as="geometry" />
        </mxCell>
        <mxCell id="9joVkJ0QpTBINSRpKAiq-64" style="edgeStyle=orthogonalEdgeStyle;rounded=0;orthogonalLoop=1;jettySize=auto;html=1;entryX=0.5;entryY=1;entryDx=0;entryDy=0;" parent="1" source="9joVkJ0QpTBINSRpKAiq-65" target="9joVkJ0QpTBINSRpKAiq-60" edge="1">
          <mxGeometry relative="1" as="geometry" />
        </mxCell>
        <mxCell id="9joVkJ0QpTBINSRpKAiq-65" value="&lt;b style=&quot;border-color: var(--border-color);&quot;&gt;TreeMap&lt;/b&gt;" style="swimlane;fontStyle=1;align=center;verticalAlign=top;childLayout=stackLayout;horizontal=1;startSize=27;horizontalStack=0;resizeParent=1;resizeParentMax=0;resizeLast=0;collapsible=1;marginBottom=0;whiteSpace=wrap;html=1;fillColor=#dae8fc;strokeColor=#6c8ebf;" parent="1" vertex="1">
          <mxGeometry x="2625.5" y="1788" width="206" height="151" as="geometry" />
        </mxCell>
        <mxCell id="9joVkJ0QpTBINSRpKAiq-66" value="//" style="text;strokeColor=none;fillColor=none;align=left;verticalAlign=top;spacingLeft=4;spacingRight=4;overflow=hidden;rotatable=0;points=[[0,0.5],[1,0.5]];portConstraint=eastwest;whiteSpace=wrap;html=1;" parent="9joVkJ0QpTBINSRpKAiq-65" vertex="1">
          <mxGeometry y="27" width="206" height="26" as="geometry" />
        </mxCell>
        <mxCell id="9joVkJ0QpTBINSRpKAiq-67" value="" style="line;strokeWidth=1;fillColor=none;align=left;verticalAlign=middle;spacingTop=-1;spacingLeft=3;spacingRight=3;rotatable=0;labelPosition=right;points=[];portConstraint=eastwest;strokeColor=inherit;" parent="9joVkJ0QpTBINSRpKAiq-65" vertex="1">
          <mxGeometry y="53" width="206" height="8" as="geometry" />
        </mxCell>
        <mxCell id="9joVkJ0QpTBINSRpKAiq-68" value="-&amp;nbsp;Since 1.2 (Dec 1998).&lt;br&gt;- Red-black tree based implementation of NavigableMap interface.&lt;br&gt;- Not thread-safe." style="text;strokeColor=none;fillColor=none;align=left;verticalAlign=top;spacingLeft=4;spacingRight=4;overflow=hidden;rotatable=0;points=[[0,0.5],[1,0.5]];portConstraint=eastwest;whiteSpace=wrap;html=1;" parent="9joVkJ0QpTBINSRpKAiq-65" vertex="1">
          <mxGeometry y="61" width="206" height="90" as="geometry" />
        </mxCell>
        <mxCell id="9joVkJ0QpTBINSRpKAiq-78" style="edgeStyle=orthogonalEdgeStyle;rounded=0;orthogonalLoop=1;jettySize=auto;html=1;entryX=0;entryY=0.5;entryDx=0;entryDy=0;" parent="1" source="9joVkJ0QpTBINSRpKAiq-74" target="FApFlZrMrufbnj_ad8FX-54" edge="1">
          <mxGeometry relative="1" as="geometry" />
        </mxCell>
        <mxCell id="9joVkJ0QpTBINSRpKAiq-74" value="&lt;b style=&quot;border-color: var(--border-color); color: rgb(51, 51, 51);&quot;&gt;LinkedHashSet&lt;/b&gt;" style="swimlane;fontStyle=1;align=center;verticalAlign=top;childLayout=stackLayout;horizontal=1;startSize=27;horizontalStack=0;resizeParent=1;resizeParentMax=0;resizeLast=0;collapsible=1;marginBottom=0;whiteSpace=wrap;html=1;fillColor=#dae8fc;strokeColor=#6c8ebf;" parent="1" vertex="1">
          <mxGeometry x="1200" y="1670.5" width="248" height="163" as="geometry" />
        </mxCell>
        <mxCell id="9joVkJ0QpTBINSRpKAiq-75" value="//" style="text;strokeColor=none;fillColor=none;align=left;verticalAlign=top;spacingLeft=4;spacingRight=4;overflow=hidden;rotatable=0;points=[[0,0.5],[1,0.5]];portConstraint=eastwest;whiteSpace=wrap;html=1;" parent="9joVkJ0QpTBINSRpKAiq-74" vertex="1">
          <mxGeometry y="27" width="248" height="29" as="geometry" />
        </mxCell>
        <mxCell id="9joVkJ0QpTBINSRpKAiq-76" value="" style="line;strokeWidth=1;fillColor=none;align=left;verticalAlign=middle;spacingTop=-1;spacingLeft=3;spacingRight=3;rotatable=0;labelPosition=right;points=[];portConstraint=eastwest;strokeColor=inherit;" parent="9joVkJ0QpTBINSRpKAiq-74" vertex="1">
          <mxGeometry y="56" width="248" height="8" as="geometry" />
        </mxCell>
        <mxCell id="9joVkJ0QpTBINSRpKAiq-77" value="-&amp;nbsp;Since 1.4 (Feb 2002).&lt;br&gt;- Similar to HashSet, but LinkedHashSet allows insertion-order iteration over the set.&lt;br&gt;- This is made possible by maintaining a doubly-linked list running through all of its entries." style="text;strokeColor=none;fillColor=none;align=left;verticalAlign=top;spacingLeft=4;spacingRight=4;overflow=hidden;rotatable=0;points=[[0,0.5],[1,0.5]];portConstraint=eastwest;whiteSpace=wrap;html=1;" parent="9joVkJ0QpTBINSRpKAiq-74" vertex="1">
          <mxGeometry y="64" width="248" height="99" as="geometry" />
        </mxCell>
        <mxCell id="9joVkJ0QpTBINSRpKAiq-83" style="edgeStyle=orthogonalEdgeStyle;rounded=0;orthogonalLoop=1;jettySize=auto;html=1;exitX=0.5;exitY=0;exitDx=0;exitDy=0;entryX=0;entryY=0.5;entryDx=0;entryDy=0;" parent="1" source="9joVkJ0QpTBINSRpKAiq-79" target="FApFlZrMrufbnj_ad8FX-34" edge="1">
          <mxGeometry relative="1" as="geometry" />
        </mxCell>
        <mxCell id="9joVkJ0QpTBINSRpKAiq-79" value="&lt;b style=&quot;border-color: var(--border-color); color: rgb(51, 51, 51);&quot;&gt;LinkedHashMap&lt;/b&gt;" style="swimlane;fontStyle=1;align=center;verticalAlign=top;childLayout=stackLayout;horizontal=1;startSize=27;horizontalStack=0;resizeParent=1;resizeParentMax=0;resizeLast=0;collapsible=1;marginBottom=0;whiteSpace=wrap;html=1;fillColor=#dae8fc;strokeColor=#6c8ebf;" parent="1" vertex="1">
          <mxGeometry x="1901" y="2013" width="248" height="172" as="geometry" />
        </mxCell>
        <mxCell id="9joVkJ0QpTBINSRpKAiq-80" value="//" style="text;strokeColor=none;fillColor=none;align=left;verticalAlign=top;spacingLeft=4;spacingRight=4;overflow=hidden;rotatable=0;points=[[0,0.5],[1,0.5]];portConstraint=eastwest;whiteSpace=wrap;html=1;" parent="9joVkJ0QpTBINSRpKAiq-79" vertex="1">
          <mxGeometry y="27" width="248" height="29" as="geometry" />
        </mxCell>
        <mxCell id="9joVkJ0QpTBINSRpKAiq-81" value="" style="line;strokeWidth=1;fillColor=none;align=left;verticalAlign=middle;spacingTop=-1;spacingLeft=3;spacingRight=3;rotatable=0;labelPosition=right;points=[];portConstraint=eastwest;strokeColor=inherit;" parent="9joVkJ0QpTBINSRpKAiq-79" vertex="1">
          <mxGeometry y="56" width="248" height="8" as="geometry" />
        </mxCell>
        <mxCell id="9joVkJ0QpTBINSRpKAiq-82" value="-&amp;nbsp;Since 1.4 (Feb 2002).&lt;br&gt;- Similar to HashMap, but LinkedHashMap allows insertion-order iteration over the keys.&lt;br&gt;- This is made possible by maintaining a doubly-linked list running through all of its entries." style="text;strokeColor=none;fillColor=none;align=left;verticalAlign=top;spacingLeft=4;spacingRight=4;overflow=hidden;rotatable=0;points=[[0,0.5],[1,0.5]];portConstraint=eastwest;whiteSpace=wrap;html=1;" parent="9joVkJ0QpTBINSRpKAiq-79" vertex="1">
          <mxGeometry y="64" width="248" height="108" as="geometry" />
        </mxCell>
        <mxCell id="uIWywwVKDFgmFYhPDzQX-1" value="&lt;span style=&quot;font-weight: normal;&quot;&gt;«interface»&lt;br style=&quot;border-color: var(--border-color); color: rgb(51, 51, 51);&quot;&gt;&lt;/span&gt;&lt;b style=&quot;border-color: var(--border-color); color: rgb(51, 51, 51);&quot;&gt;RandomAccess&lt;/b&gt;" style="swimlane;fontStyle=1;align=center;verticalAlign=top;childLayout=stackLayout;horizontal=1;startSize=39;horizontalStack=0;resizeParent=1;resizeParentMax=0;resizeLast=0;collapsible=1;marginBottom=0;whiteSpace=wrap;html=1;fillColor=#f5f5f5;fontColor=#333333;strokeColor=#666666;" vertex="1" parent="1">
          <mxGeometry x="-514" y="722" width="206" height="161" as="geometry" />
        </mxCell>
        <mxCell id="uIWywwVKDFgmFYhPDzQX-2" value="No" style="text;strokeColor=none;fillColor=none;align=left;verticalAlign=top;spacingLeft=4;spacingRight=4;overflow=hidden;rotatable=0;points=[[0,0.5],[1,0.5]];portConstraint=eastwest;whiteSpace=wrap;html=1;" vertex="1" parent="uIWywwVKDFgmFYhPDzQX-1">
          <mxGeometry y="39" width="206" height="27" as="geometry" />
        </mxCell>
        <mxCell id="uIWywwVKDFgmFYhPDzQX-3" value="" style="line;strokeWidth=1;fillColor=none;align=left;verticalAlign=middle;spacingTop=-1;spacingLeft=3;spacingRight=3;rotatable=0;labelPosition=right;points=[];portConstraint=eastwest;strokeColor=inherit;" vertex="1" parent="uIWywwVKDFgmFYhPDzQX-1">
          <mxGeometry y="66" width="206" height="8" as="geometry" />
        </mxCell>
        <mxCell id="uIWywwVKDFgmFYhPDzQX-4" value="-&amp;nbsp;Since 1.4 (Feb 2002).&lt;br&gt;- Marker interface used by List implementations to indicate that they support fast (generally constant time) random access." style="text;strokeColor=none;fillColor=none;align=left;verticalAlign=top;spacingLeft=4;spacingRight=4;overflow=hidden;rotatable=0;points=[[0,0.5],[1,0.5]];portConstraint=eastwest;whiteSpace=wrap;html=1;" vertex="1" parent="uIWywwVKDFgmFYhPDzQX-1">
          <mxGeometry y="74" width="206" height="87" as="geometry" />
        </mxCell>
        <mxCell id="uIWywwVKDFgmFYhPDzQX-13" value="&lt;span style=&quot;font-weight: normal;&quot;&gt;«interface»&lt;br style=&quot;border-color: var(--border-color); color: rgb(51, 51, 51);&quot;&gt;&lt;/span&gt;&lt;b style=&quot;border-color: var(--border-color); color: rgb(51, 51, 51);&quot;&gt;Iterable&lt;/b&gt;" style="swimlane;fontStyle=1;align=center;verticalAlign=top;childLayout=stackLayout;horizontal=1;startSize=39;horizontalStack=0;resizeParent=1;resizeParentMax=0;resizeLast=0;collapsible=1;marginBottom=0;whiteSpace=wrap;html=1;fillColor=#f5f5f5;fontColor=#333333;strokeColor=#666666;" vertex="1" parent="1">
          <mxGeometry x="583.5" y="-268" width="318" height="253" as="geometry" />
        </mxCell>
        <mxCell id="uIWywwVKDFgmFYhPDzQX-14" value="- &lt;font color=&quot;#cc00cc&quot;&gt;void forEach(Consumer&amp;lt;? super T&amp;gt; action)&lt;/font&gt;&lt;br&gt;- &lt;font color=&quot;#cc00cc&quot;&gt;Iterator&amp;lt;T&amp;gt; iterator()&lt;/font&gt;" style="text;strokeColor=none;fillColor=none;align=left;verticalAlign=top;spacingLeft=4;spacingRight=4;overflow=hidden;rotatable=0;points=[[0,0.5],[1,0.5]];portConstraint=eastwest;whiteSpace=wrap;html=1;" vertex="1" parent="uIWywwVKDFgmFYhPDzQX-13">
          <mxGeometry y="39" width="318" height="40" as="geometry" />
        </mxCell>
        <mxCell id="uIWywwVKDFgmFYhPDzQX-15" value="" style="line;strokeWidth=1;fillColor=none;align=left;verticalAlign=middle;spacingTop=-1;spacingLeft=3;spacingRight=3;rotatable=0;labelPosition=right;points=[];portConstraint=eastwest;strokeColor=inherit;" vertex="1" parent="uIWywwVKDFgmFYhPDzQX-13">
          <mxGeometry y="79" width="318" height="8" as="geometry" />
        </mxCell>
        <mxCell id="uIWywwVKDFgmFYhPDzQX-16" value="-&amp;nbsp;Since 1.5 (Sep 2004).&lt;br&gt;- This interface provides means for looping through a collection.&lt;br&gt;- Using an iterator: first we obtain an iterator on the collection by calling its iterator() method. Then using this iterator to access each element, one at a time.&lt;br&gt;- Using For-Each: Implementing this interface allows an object to be the target of the for-each loop statement. Pros: short and simple syntax. Cons: can only cycle through the collection in forward direction, can&#39;t modify contents of the collection." style="text;strokeColor=none;fillColor=none;align=left;verticalAlign=top;spacingLeft=4;spacingRight=4;overflow=hidden;rotatable=0;points=[[0,0.5],[1,0.5]];portConstraint=eastwest;whiteSpace=wrap;html=1;" vertex="1" parent="uIWywwVKDFgmFYhPDzQX-13">
          <mxGeometry y="87" width="318" height="166" as="geometry" />
        </mxCell>
        <mxCell id="uIWywwVKDFgmFYhPDzQX-18" value="&lt;span style=&quot;font-weight: normal;&quot;&gt;«interface»&lt;br style=&quot;border-color: var(--border-color); color: rgb(51, 51, 51);&quot;&gt;&lt;/span&gt;&lt;b style=&quot;border-color: var(--border-color); color: rgb(51, 51, 51);&quot;&gt;Comparable&lt;/b&gt;" style="swimlane;fontStyle=1;align=center;verticalAlign=top;childLayout=stackLayout;horizontal=1;startSize=39;horizontalStack=0;resizeParent=1;resizeParentMax=0;resizeLast=0;collapsible=1;marginBottom=0;whiteSpace=wrap;html=1;fillColor=#f5f5f5;fontColor=#333333;strokeColor=#666666;" vertex="1" parent="1">
          <mxGeometry x="1698" y="-229" width="459" height="416" as="geometry" />
        </mxCell>
        <mxCell id="uIWywwVKDFgmFYhPDzQX-19" value="- &lt;font color=&quot;#cc00cc&quot;&gt;int compareTo(T o)&lt;/font&gt;&lt;br&gt;" style="text;strokeColor=none;fillColor=none;align=left;verticalAlign=top;spacingLeft=4;spacingRight=4;overflow=hidden;rotatable=0;points=[[0,0.5],[1,0.5]];portConstraint=eastwest;whiteSpace=wrap;html=1;" vertex="1" parent="uIWywwVKDFgmFYhPDzQX-18">
          <mxGeometry y="39" width="459" height="25" as="geometry" />
        </mxCell>
        <mxCell id="uIWywwVKDFgmFYhPDzQX-20" value="" style="line;strokeWidth=1;fillColor=none;align=left;verticalAlign=middle;spacingTop=-1;spacingLeft=3;spacingRight=3;rotatable=0;labelPosition=right;points=[];portConstraint=eastwest;strokeColor=inherit;" vertex="1" parent="uIWywwVKDFgmFYhPDzQX-18">
          <mxGeometry y="64" width="459" height="8" as="geometry" />
        </mxCell>
        <mxCell id="uIWywwVKDFgmFYhPDzQX-21" value="-&amp;nbsp;Since 1.2 (Dec 1998).&lt;br&gt;&lt;br&gt;- This interface imposes a total ordering on the objects of each class that implements it. This order is referred to as the class&#39;s &lt;i&gt;natural ordering&lt;/i&gt;, and the class&#39;s compareTo method is referred to as its &lt;i&gt;natural comparison method&lt;/i&gt;. Mathematically, the natural ordering is defined as {(x, y) | x.compareTo(y) &amp;lt;= 0}.&lt;br&gt;&lt;br&gt;- It is strongly recommended that natural ordering of a class be consistent with equals, i.e. e1.compareTo(e2) == 0 has same boolean value as e1.equals(e2) for every e1, e2 of the class. This is so because sorted sets/maps (without explicit comparators) behave strangely when they are used with elements/keys whose natural ordering is inconsistent with equals. In particular, such as sorted set/map violates the general contract for set (or map).&lt;br&gt;&lt;br&gt;- Virtually, all Java core classes that implement this interface have natural orderings that are consistent with equals. One exception is java.math.BigDecimal.&lt;br&gt;&lt;br&gt;- Lists (and arrays) of objects that implement this interface can be sorted automatically by Collections.sort (and Arrays.sort), without the need to specify a comparator.&lt;br&gt;&lt;br&gt;- Objects that implement this interface can be used as keys in a sorted map or as elements in a sorted set, without the need to specify a comparator." style="text;strokeColor=none;fillColor=none;align=left;verticalAlign=top;spacingLeft=4;spacingRight=4;overflow=hidden;rotatable=0;points=[[0,0.5],[1,0.5]];portConstraint=eastwest;whiteSpace=wrap;html=1;" vertex="1" parent="uIWywwVKDFgmFYhPDzQX-18">
          <mxGeometry y="72" width="459" height="344" as="geometry" />
        </mxCell>
        <mxCell id="uIWywwVKDFgmFYhPDzQX-22" value="&lt;span style=&quot;font-weight: normal;&quot;&gt;«interface»&lt;br style=&quot;border-color: var(--border-color); color: rgb(51, 51, 51);&quot;&gt;&lt;/span&gt;&lt;b style=&quot;border-color: var(--border-color); color: rgb(51, 51, 51);&quot;&gt;Comparator&lt;/b&gt;" style="swimlane;fontStyle=1;align=center;verticalAlign=top;childLayout=stackLayout;horizontal=1;startSize=39;horizontalStack=0;resizeParent=1;resizeParentMax=0;resizeLast=0;collapsible=1;marginBottom=0;whiteSpace=wrap;html=1;fillColor=#f5f5f5;fontColor=#333333;strokeColor=#666666;" vertex="1" parent="1">
          <mxGeometry x="2220" y="-229" width="459" height="362" as="geometry" />
        </mxCell>
        <mxCell id="uIWywwVKDFgmFYhPDzQX-23" value="- &lt;font color=&quot;#cc00cc&quot;&gt;int compareTo(T o)&lt;/font&gt;&lt;br&gt;" style="text;strokeColor=none;fillColor=none;align=left;verticalAlign=top;spacingLeft=4;spacingRight=4;overflow=hidden;rotatable=0;points=[[0,0.5],[1,0.5]];portConstraint=eastwest;whiteSpace=wrap;html=1;" vertex="1" parent="uIWywwVKDFgmFYhPDzQX-22">
          <mxGeometry y="39" width="459" height="25" as="geometry" />
        </mxCell>
        <mxCell id="uIWywwVKDFgmFYhPDzQX-24" value="" style="line;strokeWidth=1;fillColor=none;align=left;verticalAlign=middle;spacingTop=-1;spacingLeft=3;spacingRight=3;rotatable=0;labelPosition=right;points=[];portConstraint=eastwest;strokeColor=inherit;" vertex="1" parent="uIWywwVKDFgmFYhPDzQX-22">
          <mxGeometry y="64" width="459" height="8" as="geometry" />
        </mxCell>
        <mxCell id="uIWywwVKDFgmFYhPDzQX-25" value="-&amp;nbsp;Since 1.2 (Dec 1998).&lt;br&gt;&lt;br&gt;- A comparison function (functional interface) which imposes a total ordering on some collection of objects.&lt;br&gt;&lt;br&gt;- Comparators can be passed to a sort method (Collections.sort, Arrays.sort) to allow precise control over the sort order (the comparator is always used whether the objects have natural ordering or not).&lt;br&gt;&lt;br&gt;- Comparators can be used to control the order of certain data structures (sorted sets, sorted maps), or to provide an ordering for collections of objects that don&#39;t have a natural ordering. In case of sorted sets/maps, it is strongly recommended that the ordering imposed by the explicitly provided comparator is consistent with the objects&#39; equal method; otherwise such a sorted set/map will behave strangely. In particular, they violate the general contract for set (or map).&lt;br&gt;&lt;br&gt;- If comparators are used as ordering methods in serializable data structures (like TreeSet, TreeMap), they must implement Serializable interface in order for the data structures to serialize successfully." style="text;strokeColor=none;fillColor=none;align=left;verticalAlign=top;spacingLeft=4;spacingRight=4;overflow=hidden;rotatable=0;points=[[0,0.5],[1,0.5]];portConstraint=eastwest;whiteSpace=wrap;html=1;" vertex="1" parent="uIWywwVKDFgmFYhPDzQX-22">
          <mxGeometry y="72" width="459" height="290" as="geometry" />
        </mxCell>
        <mxCell id="uIWywwVKDFgmFYhPDzQX-26" value="Arrays" style="swimlane;fontStyle=1;align=center;verticalAlign=top;childLayout=stackLayout;horizontal=1;startSize=26;horizontalStack=0;resizeParent=1;resizeParentMax=0;resizeLast=0;collapsible=1;marginBottom=0;whiteSpace=wrap;html=1;fillColor=#f5f5f5;fontColor=#333333;strokeColor=#666666;" vertex="1" parent="1">
          <mxGeometry x="-136" y="-332" width="307" height="433" as="geometry" />
        </mxCell>
        <mxCell id="uIWywwVKDFgmFYhPDzQX-27" value="Static methods (T can be primitives):&lt;br style=&quot;border-color: var(--border-color);&quot;&gt;- &lt;font color=&quot;#cc00cc&quot;&gt;List&amp;lt;T&amp;gt; asList(T...)&lt;/font&gt;&lt;br&gt;- &lt;font color=&quot;#cc00cc&quot;&gt;T[] copyOf(T[], int newLength)&lt;/font&gt;: for indices valid in the copy but not in the original, the copy will contain 0/false/&#39;\\u000&#39;/null if T = numerics/boolean/char/reference type.&lt;br&gt;- &lt;font color=&quot;#cc00cc&quot;&gt;T[] copyOfRange(T[], int from, int to)&lt;/font&gt;: as above.&lt;br&gt;- &lt;font color=&quot;#cc00cc&quot;&gt;void fill(T[] a, int? from = 0, int? to = a.length, T value)&lt;br&gt;&lt;/font&gt;&lt;br&gt;- &lt;font color=&quot;#cc00cc&quot;&gt;void sort(T[] a, int? from = 0, int? to = a.length, Comparator&amp;lt;T&amp;gt;? c = natural_ordering): &lt;/font&gt;this sort is guaranteed to be stable.&lt;br&gt;-&amp;nbsp;&lt;font style=&quot;border-color: var(--border-color);&quot; color=&quot;#cc00cc&quot;&gt;int binarySearch(T[] a, int? from = 0, int? to = a.length, T key): &lt;/font&gt;&lt;font style=&quot;border-color: var(--border-color);&quot;&gt;If array contains the search key, returns its index. If array contains multiple search keys, there&#39;s no guarantee which one will be returned. If array don&#39;t contain the search key, returns (-insertion point - 1), insertion point is one at which they key would be inserted into the array: the index of the first element (in the range, if from and to are specified) greater than the key, or array.length (or to) if all elements (in the range if from and to are specified) are less than the key.&lt;br&gt;&lt;/font&gt;&lt;font color=&quot;#cc00cc&quot;&gt;&lt;br&gt;&lt;/font&gt;- &lt;font color=&quot;#cc00cc&quot;&gt;PrimitiveStream stream(Primitive[] a, int? from = 0, int? to = a.length)&lt;/font&gt;" style="text;strokeColor=none;fillColor=none;align=left;verticalAlign=top;spacingLeft=4;spacingRight=4;overflow=hidden;rotatable=0;points=[[0,0.5],[1,0.5]];portConstraint=eastwest;whiteSpace=wrap;html=1;" vertex="1" parent="uIWywwVKDFgmFYhPDzQX-26">
          <mxGeometry y="26" width="307" height="369" as="geometry" />
        </mxCell>
        <mxCell id="uIWywwVKDFgmFYhPDzQX-28" value="" style="line;strokeWidth=1;fillColor=none;align=left;verticalAlign=middle;spacingTop=-1;spacingLeft=3;spacingRight=3;rotatable=0;labelPosition=right;points=[];portConstraint=eastwest;strokeColor=inherit;" vertex="1" parent="uIWywwVKDFgmFYhPDzQX-26">
          <mxGeometry y="395" width="307" height="8" as="geometry" />
        </mxCell>
        <mxCell id="uIWywwVKDFgmFYhPDzQX-29" value="-&amp;nbsp;Since 1.2 (Dec 1998)." style="text;strokeColor=none;fillColor=none;align=left;verticalAlign=top;spacingLeft=4;spacingRight=4;overflow=hidden;rotatable=0;points=[[0,0.5],[1,0.5]];portConstraint=eastwest;whiteSpace=wrap;html=1;" vertex="1" parent="uIWywwVKDFgmFYhPDzQX-26">
          <mxGeometry y="403" width="307" height="30" as="geometry" />
        </mxCell>
        <mxCell id="uIWywwVKDFgmFYhPDzQX-34" value="Collections" style="swimlane;fontStyle=1;align=center;verticalAlign=top;childLayout=stackLayout;horizontal=1;startSize=26;horizontalStack=0;resizeParent=1;resizeParentMax=0;resizeLast=0;collapsible=1;marginBottom=0;whiteSpace=wrap;html=1;fillColor=#f5f5f5;fontColor=#333333;strokeColor=#666666;" vertex="1" parent="1">
          <mxGeometry x="223" y="-332" width="307" height="390" as="geometry" />
        </mxCell>
        <mxCell id="uIWywwVKDFgmFYhPDzQX-35" value="Static methods (T can&#39;t be primitives):&lt;br style=&quot;border-color: var(--border-color);&quot;&gt;-&amp;nbsp;&lt;font style=&quot;border-color: var(--border-color);&quot; color=&quot;#cc00cc&quot;&gt;List&amp;lt;T&amp;gt; emptyList()&lt;br&gt;&lt;/font&gt;-&amp;nbsp;&lt;font style=&quot;border-color: var(--border-color);&quot; color=&quot;#cc00cc&quot;&gt;Map&amp;lt;K, V&amp;gt; emptyMap()&lt;br&gt;&lt;/font&gt;- &lt;font style=&quot;border-color: var(--border-color);&quot; color=&quot;#cc00cc&quot;&gt;Set&amp;lt;T&amp;gt; emptySet()&lt;br&gt;&lt;/font&gt;&lt;br&gt;- &lt;font color=&quot;#cc00cc&quot;&gt;int binarySearch(List&amp;lt;? extends Comparable&amp;lt;? super T&amp;gt;&amp;gt; list, T key): &lt;/font&gt;runs log(n) for a &quot;random access&quot; list. Returned value is similar to Arrays.binarySearch.&lt;br&gt;-&amp;nbsp;&lt;font style=&quot;border-color: var(--border-color); color: rgb(204, 0, 204);&quot; color=&quot;#cc00cc&quot;&gt;void sort(List&amp;lt;T&amp;gt;, Comparator&amp;lt;T&amp;gt;? c = natural ordering): &lt;/font&gt;&lt;font style=&quot;border-color: var(--border-color);&quot;&gt;this sort is guaranteed to be stable.&lt;br&gt;&lt;/font&gt;&lt;font style=&quot;border-color: var(--border-color);&quot; color=&quot;#cc00cc&quot;&gt;&lt;br&gt;&lt;/font&gt;-&amp;nbsp;&lt;font style=&quot;border-color: var(--border-color);&quot; color=&quot;#cc00cc&quot;&gt;T max(Collection&amp;lt;T&amp;gt;)&lt;br&gt;&lt;/font&gt;-&amp;nbsp;&lt;font style=&quot;border-color: var(--border-color);&quot; color=&quot;#cc00cc&quot;&gt;T min(Collection&amp;lt;T&amp;gt;)&lt;br&gt;&lt;br&gt;-&amp;nbsp;&lt;font style=&quot;border-color: var(--border-color);&quot; color=&quot;#cc00cc&quot;&gt;void fill(List&amp;lt;? super T&amp;gt; list, T val)&lt;/font&gt;&lt;br&gt;&lt;/font&gt;-&amp;nbsp;&lt;font style=&quot;border-color: var(--border-color);&quot;&gt;&lt;font color=&quot;#cc00cc&quot;&gt;List&amp;lt;T&amp;gt; nCopies(int, T)&lt;br&gt;&lt;/font&gt;&lt;br&gt;-&amp;nbsp;&lt;font style=&quot;color: rgb(204, 0, 204); border-color: var(--border-color);&quot; color=&quot;#cc00cc&quot;&gt;void reverse(List&amp;lt;?&amp;gt;)&lt;/font&gt;&lt;font style=&quot;border-color: var(--border-color); color: rgb(204, 0, 204);&quot; color=&quot;#cc00cc&quot;&gt;&lt;br&gt;&lt;/font&gt;-&amp;nbsp;&lt;font style=&quot;border-color: var(--border-color); color: rgb(204, 0, 204);&quot; color=&quot;#cc00cc&quot;&gt;void swap(List&amp;lt;?&amp;gt;, int i, int j)&lt;/font&gt;&lt;br&gt;&lt;/font&gt;&lt;font color=&quot;#cc00cc&quot;&gt;&lt;br&gt;&lt;/font&gt;" style="text;strokeColor=none;fillColor=none;align=left;verticalAlign=top;spacingLeft=4;spacingRight=4;overflow=hidden;rotatable=0;points=[[0,0.5],[1,0.5]];portConstraint=eastwest;whiteSpace=wrap;html=1;" vertex="1" parent="uIWywwVKDFgmFYhPDzQX-34">
          <mxGeometry y="26" width="307" height="286" as="geometry" />
        </mxCell>
        <mxCell id="uIWywwVKDFgmFYhPDzQX-36" value="" style="line;strokeWidth=1;fillColor=none;align=left;verticalAlign=middle;spacingTop=-1;spacingLeft=3;spacingRight=3;rotatable=0;labelPosition=right;points=[];portConstraint=eastwest;strokeColor=inherit;" vertex="1" parent="uIWywwVKDFgmFYhPDzQX-34">
          <mxGeometry y="312" width="307" height="8" as="geometry" />
        </mxCell>
        <mxCell id="uIWywwVKDFgmFYhPDzQX-37" value="-&amp;nbsp;Since 1.2 (Dec 1998).&lt;br&gt;- The methods of this class all throw NullPointerException if the collections provided to them are null." style="text;strokeColor=none;fillColor=none;align=left;verticalAlign=top;spacingLeft=4;spacingRight=4;overflow=hidden;rotatable=0;points=[[0,0.5],[1,0.5]];portConstraint=eastwest;whiteSpace=wrap;html=1;" vertex="1" parent="uIWywwVKDFgmFYhPDzQX-34">
          <mxGeometry y="320" width="307" height="70" as="geometry" />
        </mxCell>
        <mxCell id="uIWywwVKDFgmFYhPDzQX-38" value="Math" style="swimlane;fontStyle=1;align=center;verticalAlign=top;childLayout=stackLayout;horizontal=1;startSize=26;horizontalStack=0;resizeParent=1;resizeParentMax=0;resizeLast=0;collapsible=1;marginBottom=0;whiteSpace=wrap;html=1;fillColor=#f5f5f5;fontColor=#333333;strokeColor=#666666;" vertex="1" parent="1">
          <mxGeometry x="-558.5" y="-332" width="372" height="492" as="geometry" />
        </mxCell>
        <mxCell id="uIWywwVKDFgmFYhPDzQX-39" value="Static fields:&lt;br&gt;-&amp;nbsp;&lt;font style=&quot;border-color: var(--border-color);&quot; color=&quot;#cc00cc&quot;&gt;E&lt;br&gt;&lt;/font&gt;-&amp;nbsp;&lt;font style=&quot;border-color: var(--border-color);&quot; color=&quot;#cc00cc&quot;&gt;PI&lt;br&gt;&lt;/font&gt;&lt;br&gt;Static methods (T is primitive):&lt;br style=&quot;border-color: var(--border-color);&quot;&gt;-&amp;nbsp;&lt;font style=&quot;border-color: var(--border-color);&quot; color=&quot;#cc00cc&quot;&gt;T abs(T)&lt;/font&gt;&lt;br&gt;- &lt;font color=&quot;#cc00cc&quot;&gt;T&amp;nbsp;max(T, T),&amp;nbsp;&lt;/font&gt;&lt;font style=&quot;border-color: var(--border-color);&quot;&gt;&lt;font color=&quot;#cc00cc&quot;&gt;min(T, T)&lt;br&gt;&lt;/font&gt;-&amp;nbsp;&lt;font style=&quot;border-color: var(--border-color);&quot; color=&quot;#cc00cc&quot;&gt;double pow(double x, double y): returns x^y.&lt;br style=&quot;border-color: var(--border-color);&quot;&gt;&lt;/font&gt;- &lt;font color=&quot;#cc00cc&quot;&gt;double&lt;/font&gt;&amp;nbsp;&lt;font style=&quot;border-color: var(--border-color);&quot; color=&quot;#cc00cc&quot;&gt;exp(double x): returns e^x.&lt;/font&gt;&lt;br&gt;- &lt;font color=&quot;#cc00cc&quot;&gt;double&amp;nbsp;&lt;/font&gt;&lt;font style=&quot;color: rgb(204, 0, 204); border-color: var(--border-color);&quot; color=&quot;#cc00cc&quot;&gt;log(double),&amp;nbsp;&lt;/font&gt;&lt;font style=&quot;color: rgb(204, 0, 204); border-color: var(--border-color);&quot; color=&quot;#cc00cc&quot;&gt;log10(double): &lt;/font&gt;&lt;font style=&quot;border-color: var(--border-color);&quot;&gt;returns natural (base e) and base 10 logarithm (base e) respectively of a double&lt;/font&gt;&lt;font style=&quot;color: rgb(204, 0, 204); border-color: var(--border-color);&quot; color=&quot;#cc00cc&quot;&gt;.&lt;br&gt;&lt;/font&gt;- &lt;font color=&quot;#cc00cc&quot;&gt;double&amp;nbsp;&lt;/font&gt;&lt;font style=&quot;border-color: var(--border-color);&quot; color=&quot;#cc00cc&quot;&gt;sqrt(double), cbrt(double)&lt;/font&gt;&lt;font style=&quot;border-color: var(--border-color);&quot;&gt;: returns x^1/2, x^1/3 respectively.&lt;br&gt;&lt;/font&gt;- &lt;font color=&quot;#cc00cc&quot;&gt;double&amp;nbsp;&lt;/font&gt;&lt;font style=&quot;border-color: var(--border-color);&quot; color=&quot;#cc00cc&quot;&gt;hypot(double x, double y)&lt;/font&gt;&lt;font style=&quot;border-color: var(--border-color);&quot;&gt;: returns (x^2 + y^2)^1/2.&lt;/font&gt;&lt;br&gt;&lt;/font&gt;&lt;font color=&quot;#cc00cc&quot;&gt;&lt;br&gt;&lt;/font&gt;- &lt;font color=&quot;#cc00cc&quot;&gt;toDegrees(double), toRadians(double)&lt;/font&gt;: converts angle in radians/in degrees to angle in degrees/radians.&lt;font color=&quot;#cc00cc&quot;&gt;&lt;br&gt;&lt;/font&gt;- &lt;font color=&quot;#cc00cc&quot;&gt;double cos(double),&amp;nbsp;&lt;/font&gt;&lt;font style=&quot;border-color: var(--border-color);&quot; color=&quot;#cc00cc&quot;&gt;sin(double),&amp;nbsp;&lt;/font&gt;&lt;font style=&quot;border-color: var(--border-color);&quot; color=&quot;#cc00cc&quot;&gt;tan(double): &lt;/font&gt;&lt;font style=&quot;border-color: var(--border-color);&quot;&gt;returns cos/sin/tan of an angle in radians.&lt;br&gt;&lt;/font&gt;- &lt;font style=&quot;border-color: var(--border-color);&quot; color=&quot;#cc00cc&quot;&gt;double acos(double),&amp;nbsp;&lt;/font&gt;&lt;font style=&quot;border-color: var(--border-color);&quot; color=&quot;#cc00cc&quot;&gt;asin(double),&amp;nbsp;&lt;/font&gt;&lt;font style=&quot;border-color: var(--border-color);&quot; color=&quot;#cc00cc&quot;&gt;atan(double): &lt;/font&gt;&lt;font style=&quot;border-color: var(--border-color);&quot;&gt;returns&amp;nbsp; angle in radians.&lt;/font&gt;&lt;font color=&quot;#cc00cc&quot;&gt;&lt;br&gt;&lt;/font&gt;&lt;font style=&quot;border-color: var(--border-color);&quot;&gt;&lt;br&gt;&lt;font color=&quot;#cc00cc&quot;&gt;-&amp;nbsp;&lt;/font&gt;&lt;font style=&quot;color: rgb(204, 0, 204); border-color: var(--border-color);&quot; color=&quot;#cc00cc&quot;&gt;double ceil(double)&lt;/font&gt;&lt;font style=&quot;border-color: var(--border-color);&quot;&gt;: returns the smallest (closest to -oo) double value that is &amp;gt;= the argument and is equal to an integer.&lt;br&gt;&lt;/font&gt;- &lt;font color=&quot;#cc00cc&quot;&gt;floor(double)&lt;/font&gt;: returns the largest (closest to +oo) that is &amp;lt;= the argument and is equal to an integer.&lt;br&gt;&lt;/font&gt;- &lt;font style=&quot;border-color: var(--border-color);&quot; color=&quot;#cc00cc&quot;&gt;long round(double)&lt;/font&gt;&lt;font style=&quot;border-color: var(--border-color);&quot;&gt;: returns the closest long to the argument.&lt;br&gt;&lt;/font&gt;-&amp;nbsp;&lt;font style=&quot;border-color: var(--border-color);&quot; color=&quot;#cc00cc&quot;&gt;int round(float)&lt;/font&gt;&lt;font style=&quot;border-color: var(--border-color);&quot;&gt;: returns the closest int to the argument.&lt;/font&gt;&lt;br&gt;- &lt;font color=&quot;#cc00cc&quot;&gt;double rint(double)&lt;/font&gt;: returns the closest double value to the argument and is equal to an integer.&lt;font color=&quot;#cc00cc&quot;&gt;&lt;br&gt;&lt;/font&gt;" style="text;strokeColor=none;fillColor=none;align=left;verticalAlign=top;spacingLeft=4;spacingRight=4;overflow=hidden;rotatable=0;points=[[0,0.5],[1,0.5]];portConstraint=eastwest;whiteSpace=wrap;html=1;" vertex="1" parent="uIWywwVKDFgmFYhPDzQX-38">
          <mxGeometry y="26" width="372" height="428" as="geometry" />
        </mxCell>
        <mxCell id="uIWywwVKDFgmFYhPDzQX-40" value="" style="line;strokeWidth=1;fillColor=none;align=left;verticalAlign=middle;spacingTop=-1;spacingLeft=3;spacingRight=3;rotatable=0;labelPosition=right;points=[];portConstraint=eastwest;strokeColor=inherit;" vertex="1" parent="uIWywwVKDFgmFYhPDzQX-38">
          <mxGeometry y="454" width="372" height="8" as="geometry" />
        </mxCell>
        <mxCell id="uIWywwVKDFgmFYhPDzQX-41" value="-&amp;nbsp;Since 1.0 (Jan 1996)." style="text;strokeColor=none;fillColor=none;align=left;verticalAlign=top;spacingLeft=4;spacingRight=4;overflow=hidden;rotatable=0;points=[[0,0.5],[1,0.5]];portConstraint=eastwest;whiteSpace=wrap;html=1;" vertex="1" parent="uIWywwVKDFgmFYhPDzQX-38">
          <mxGeometry y="462" width="372" height="30" as="geometry" />
        </mxCell>
      </root>
    </mxGraphModel>
  </diagram>
</mxfile>
